fontCallback.success({"glyphs":{"ο":{"x_min":11,"x_max":699,"ha":761,"o":"m 372 669 q 607 596 516 669 q 699 380 699 523 q 591 106 699 226 q 333 -14 484 -14 q 100 58 190 -14 q 11 271 11 130 q 18 346 11 309 q 54 459 26 384 q 170 601 83 534 q 372 669 258 669 m 135 235 q 177 93 135 149 q 303 37 219 37 q 501 159 432 37 q 570 421 570 282 q 523 560 570 502 q 394 618 476 618 q 244 547 305 618 q 158 380 183 477 q 135 235 135 307 "},"S":{"x_min":-34,"x_max":667.390625,"ha":656,"o":"m 16 211 l 40 211 q 114 91 60 136 q 245 46 167 46 q 401 105 336 46 q 466 255 466 164 q 371 409 466 346 q 196 514 284 461 q 101 686 101 583 q 196 876 101 807 q 418 946 292 946 q 553 930 493 946 q 667 876 613 915 q 641 820 653 851 q 622 761 628 788 l 604 763 q 523 859 571 824 q 409 895 474 895 q 276 847 330 895 q 222 721 222 800 q 312 579 222 638 q 489 468 402 521 q 584 295 584 396 q 478 71 584 156 q 231 -14 372 -14 q 86 9 160 -14 q -34 77 13 33 q 16 211 2 138 "},"¦":{"x_min":15,"x_max":929,"ha":996,"o":"m 349 -10 q 114 78 213 -10 q 15 303 15 166 q 144 576 15 494 q 477 658 274 658 q 510 822 496 741 q 537 1010 523 903 q 571 1004 558 1006 q 608 1003 584 1003 q 638 1004 626 1003 q 674 1010 651 1006 q 626 812 645 894 q 592 652 606 730 q 833 554 738 632 q 929 337 929 476 q 807 79 929 173 q 517 -13 685 -13 l 462 -10 q 403 -372 428 -168 q 358 -366 378 -366 q 314 -367 334 -366 q 266 -372 294 -367 q 316 -182 295 -267 q 349 -10 337 -97 m 511 41 q 724 127 648 41 q 801 353 801 213 q 743 523 801 454 q 584 605 685 591 l 476 40 l 511 41 m 144 301 q 201 118 144 196 q 359 41 259 41 l 469 609 q 231 530 319 609 q 144 301 144 452 "},"/":{"x_min":-33.546875,"x_max":409,"ha":383,"o":"m 409 1025 l 39 -126 l -33 -126 l 335 1024 l 409 1025 "},"Τ":{"x_min":68.0625,"x_max":769.453125,"ha":669,"o":"m 358 857 q 198 854 261 857 q 68 844 136 852 q 77 886 72 853 q 83 932 83 919 q 234 927 133 932 q 372 922 336 922 q 579 927 440 922 q 769 932 718 932 q 758 902 763 918 q 752 874 752 887 l 751 861 l 752 844 q 631 854 704 851 q 494 857 558 857 q 390 409 434 627 q 326 0 345 191 q 289 3 306 1 q 250 5 272 5 q 209 3 230 5 q 175 0 187 1 q 273 404 227 184 q 358 857 319 624 "},"y":{"x_min":-47.609375,"x_max":656.5625,"ha":606,"o":"m 89 -176 l 171 -34 l 118 220 l 66 466 l 14 656 q 53 648 35 651 q 88 646 70 646 q 118 648 102 646 q 162 655 134 650 q 204 369 179 493 l 257 110 l 356 292 q 446 461 404 376 q 537 655 489 545 q 597 646 569 646 q 624 648 609 646 q 656 655 638 650 q 342 144 491 405 q 74 -373 194 -116 l 34 -366 q -7 -367 13 -366 q -47 -373 -28 -369 q 39 -253 -1 -313 q 89 -176 73 -201 "},"Π":{"x_min":13.890625,"x_max":999,"ha":1011,"o":"m 585 861 l 332 861 q 237 454 283 691 q 162 0 191 216 l 90 5 q 62 4 73 5 q 13 0 51 4 q 124 450 76 215 q 204 932 172 686 q 399 927 268 932 q 578 922 530 922 q 798 927 650 922 q 999 932 946 932 q 884 481 936 741 q 807 0 832 220 l 736 5 q 706 4 718 5 q 659 0 694 4 q 838 859 779 416 l 585 861 "},"ΐ":{"x_min":8,"x_max":461,"ha":335,"o":"m 128 656 q 201 648 166 648 q 271 655 238 648 q 186 311 218 474 q 155 0 155 148 q 117 3 135 1 q 78 5 100 5 l 8 0 q 70 230 45 130 q 112 442 95 330 q 128 656 128 554 m 84 869 q 130 850 111 869 q 149 805 149 831 q 130 762 149 780 q 84 744 112 744 q 41 762 58 744 q 25 805 25 780 q 42 850 25 831 q 84 869 59 869 m 235 947 q 254 990 238 968 q 290 1013 270 1013 q 323 999 309 1013 q 337 965 337 985 q 330 938 337 951 q 321 918 324 925 l 235 727 l 193 727 l 235 947 m 400 869 q 442 849 424 869 q 461 805 461 830 q 442 762 461 780 q 400 744 424 744 q 357 762 375 744 q 339 805 339 780 q 357 849 339 830 q 400 869 375 869 "},"g":{"x_min":-91,"x_max":660.390625,"ha":638,"o":"m 47 430 q 133 605 47 540 q 332 671 219 671 q 426 655 362 671 q 513 639 491 639 q 598 642 546 639 q 660 646 650 646 q 648 614 654 634 q 639 583 642 594 q 583 586 607 585 q 524 588 558 588 q 563 526 550 554 q 577 464 577 499 q 490 293 577 353 q 286 233 403 233 q 225 240 267 233 q 171 248 183 248 q 124 223 146 248 q 102 171 102 198 q 249 98 102 117 q 470 55 397 80 q 542 -82 542 30 q 428 -291 542 -211 q 178 -371 314 -371 q -8 -318 74 -371 q -91 -165 -91 -265 q -40 -44 -91 -95 q 83 34 9 6 q 22 72 42 47 q 1 138 1 97 q 45 217 10 187 q 137 273 80 248 q 69 343 92 306 q 47 430 47 380 m 459 483 q 424 584 459 544 q 329 624 390 624 q 211 561 256 624 q 166 422 166 498 q 196 325 166 365 q 284 286 227 286 q 411 343 363 286 q 459 483 459 401 m 2 -160 q 58 -274 2 -234 q 189 -315 114 -315 q 357 -262 284 -315 q 430 -119 430 -209 q 266 9 430 -6 q 122 18 160 15 q 34 -60 67 -18 q 2 -160 2 -102 "},"²":{"x_min":-3,"x_max":432,"ha":496,"o":"m 388 425 q 383 400 386 416 q 380 376 380 384 l 380 354 q 274 357 348 354 q 195 360 199 360 q 81 357 162 360 q -3 354 1 354 l 0 387 q 254 592 169 512 q 340 769 340 672 q 313 840 340 812 q 242 868 287 868 q 173 845 203 868 q 127 783 142 822 l 115 783 q 85 831 108 808 q 165 884 122 867 q 259 901 208 901 q 380 864 329 901 q 432 760 432 827 q 300 556 432 647 q 91 414 169 465 l 128 414 l 162 414 q 255 414 204 414 q 388 425 306 415 "},"Κ":{"x_min":13.890625,"x_max":836.109375,"ha":747,"o":"m 270 500 q 346 568 308 530 q 406 626 384 605 l 523 746 q 604 832 565 788 q 687 932 643 876 l 752 926 l 836 932 q 768 877 798 901 q 688 808 738 852 l 587 713 l 372 508 l 546 247 l 649 87 l 701 18 l 701 0 q 655 3 683 0 q 624 6 627 6 q 582 4 598 6 q 546 0 566 2 q 444 171 492 92 q 350 320 396 250 l 259 453 l 242 454 l 212 311 q 162 0 184 163 q 125 4 148 1 q 90 6 101 6 q 46 3 73 6 q 13 0 19 0 q 129 463 81 234 q 204 932 176 693 l 273 926 q 318 929 287 926 q 351 932 350 932 q 286 665 312 811 l 252 504 l 270 500 "},"ë":{"x_min":9,"x_max":616,"ha":664,"o":"m 142 236 q 192 100 142 153 q 322 47 242 47 q 433 76 376 47 q 538 153 490 106 l 553 139 q 536 93 544 118 q 523 50 528 69 q 415 0 471 16 q 301 -18 360 -18 q 89 61 169 -18 q 9 273 9 140 q 114 550 9 431 q 377 669 220 669 q 547 594 479 669 q 616 417 616 519 q 613 369 616 397 q 610 334 610 342 l 379 336 l 147 336 q 142 236 142 292 m 292 924 q 341 903 318 924 q 357 880 350 893 q 364 851 364 868 q 357 823 364 835 q 335 796 350 811 q 293 781 321 781 q 240 801 261 781 q 220 853 220 822 q 240 903 220 882 q 292 924 261 924 m 526 924 q 576 903 553 924 q 592 879 585 892 q 599 849 599 867 q 591 818 599 829 q 569 794 583 807 q 528 781 555 781 q 476 801 497 781 q 456 853 456 822 q 476 903 456 882 q 526 924 497 924 m 324 389 l 488 389 q 495 452 495 426 q 460 567 495 516 q 364 618 426 618 q 232 550 282 618 q 159 389 182 483 l 324 389 "},"e":{"x_min":11,"x_max":615,"ha":664,"o":"m 143 238 q 192 100 143 154 q 323 46 241 46 q 434 75 377 46 q 538 153 491 105 l 554 137 q 522 48 534 94 q 417 0 474 18 q 301 -18 359 -18 q 91 61 172 -18 q 11 270 11 140 q 116 549 11 430 q 378 669 222 669 q 548 594 481 669 q 615 415 615 519 q 612 368 615 401 q 609 334 609 335 l 380 337 l 149 337 q 144 291 145 315 q 143 238 143 266 m 324 388 l 489 388 l 494 453 q 461 568 494 519 q 364 618 428 618 q 231 549 283 618 q 161 389 180 480 l 324 388 "},"ό":{"x_min":11,"x_max":729.0625,"ha":761,"o":"m 372 669 q 607 596 516 669 q 699 380 699 523 q 591 106 699 226 q 333 -14 484 -14 q 100 58 190 -14 q 11 271 11 130 q 18 346 11 309 q 54 459 26 384 q 170 601 83 534 q 372 669 258 669 m 406 744 l 600 941 q 638 971 620 961 q 676 982 655 982 q 713 965 697 982 q 729 929 729 949 q 709 897 729 917 q 679 870 690 876 l 464 744 l 406 744 m 135 235 q 177 93 135 149 q 303 37 219 37 q 501 159 432 37 q 570 421 570 282 q 523 560 570 502 q 394 618 476 618 q 244 547 305 618 q 158 380 183 477 q 135 235 135 307 "},"J":{"x_min":-154.5625,"x_max":364.890625,"ha":385,"o":"m 241 352 l 210 176 q 99 -114 178 -11 q -149 -217 20 -217 l -154 -161 q -58 -139 -101 -161 q 9 -73 -15 -117 q 94 181 51 -17 q 166 582 137 380 q 212 932 196 785 q 259 927 244 929 q 288 926 274 926 q 329 928 306 926 q 364 932 352 930 q 295 637 326 778 q 241 352 264 497 "},"»":{"x_min":-7,"x_max":521,"ha":600,"o":"m 267 0 q 244 47 261 20 q 318 162 283 113 q 431 307 354 211 q 373 460 396 393 q 334 606 350 528 q 354 629 344 616 q 370 652 365 643 q 425 510 404 561 q 521 296 447 458 q 396 152 466 234 q 267 0 325 69 m 13 0 q -7 47 8 23 q 65 161 29 112 q 178 307 101 211 q 81 606 112 454 l 118 652 q 182 487 148 568 q 267 296 216 406 l 13 0 "},"©":{"x_min":80,"x_max":1056,"ha":1139,"o":"m 814 904 q 991 727 926 840 q 1056 481 1056 613 q 910 137 1056 281 q 567 -6 765 -6 q 224 138 368 -6 q 80 481 80 283 q 224 826 80 681 q 568 971 368 971 q 814 904 697 971 m 568 918 q 262 788 391 918 q 133 481 133 659 q 262 175 133 306 q 565 45 391 45 q 872 174 742 45 q 1003 478 1003 303 q 946 697 1003 595 q 786 858 889 799 q 568 918 683 918 m 571 721 q 441 650 485 721 q 398 489 398 579 q 437 320 398 395 q 560 245 477 245 q 663 280 618 245 q 721 369 708 315 l 799 369 q 719 232 787 283 q 561 181 651 181 q 378 268 445 181 q 312 476 312 355 q 380 693 312 602 q 573 784 448 784 q 717 736 656 784 q 794 608 778 689 l 716 608 q 665 690 704 660 q 571 721 625 721 "},"ώ":{"x_min":12,"x_max":1090,"ha":1153,"o":"m 1090 384 q 985 102 1090 219 q 716 -15 880 -15 q 591 10 644 -15 q 500 94 539 36 q 405 13 459 41 q 285 -15 350 -15 q 89 73 166 -15 q 12 283 12 161 q 64 486 12 393 q 212 658 117 580 q 266 646 238 651 q 332 641 293 641 q 191 461 245 562 q 137 248 137 359 q 178 101 137 167 q 296 36 219 36 q 480 280 428 36 q 510 474 503 429 l 538 655 q 580 649 558 651 q 631 648 602 648 l 680 652 q 610 394 632 487 q 588 205 588 302 q 621 81 588 127 q 728 36 655 36 q 898 149 842 36 q 955 389 955 262 q 933 528 955 464 q 864 648 911 592 q 925 650 898 648 q 998 661 953 653 q 1067 534 1044 606 q 1090 384 1090 462 m 578 744 l 772 941 q 810 971 792 961 q 848 982 827 982 q 884 965 869 982 q 900 929 900 949 q 882 896 900 916 q 850 870 863 876 l 636 744 l 578 744 "},"^":{"x_min":8,"x_max":402,"ha":335,"o":"m 352 744 l 242 888 l 75 744 l 8 744 l 215 978 l 291 978 l 402 744 l 352 744 "},"«":{"x_min":46,"x_max":575.171875,"ha":600,"o":"m 551 652 q 575 604 558 624 q 492 480 536 539 q 388 346 449 421 q 441 197 415 276 q 484 45 468 118 q 464 21 473 35 q 448 0 454 6 q 378 173 414 90 q 299 354 343 257 l 551 652 m 299 652 q 308 627 302 638 q 322 604 313 616 q 234 474 282 539 q 135 346 186 408 q 193 192 171 258 q 230 45 215 126 q 211 21 221 35 q 196 0 201 6 q 125 173 161 90 q 46 354 90 257 q 189 521 155 481 q 299 652 224 561 "},"D":{"x_min":11,"x_max":967,"ha":1011,"o":"m 195 931 l 294 933 l 538 933 q 850 833 734 933 q 967 538 967 733 q 780 140 967 280 q 326 0 593 0 l 115 4 l 11 4 q 98 323 62 179 q 165 639 134 466 q 195 931 195 812 m 298 62 q 676 192 523 62 q 829 544 829 322 q 742 786 829 697 q 502 876 656 876 q 403 873 473 876 q 329 870 333 870 q 236 494 283 728 q 165 71 190 260 q 231 66 187 71 q 298 62 276 62 "},"w":{"x_min":22.21875,"x_max":1036.109375,"ha":1015,"o":"m 22 656 q 91 647 54 647 q 156 655 125 647 q 187 411 169 536 q 229 149 205 287 l 330 333 q 408 485 370 407 q 483 655 445 563 q 537 647 508 647 q 586 655 565 647 q 611 448 586 569 q 648 266 636 327 l 676 125 l 773 307 q 858 487 825 412 q 925 655 891 563 q 949 650 936 652 q 972 647 962 648 q 1036 655 1004 647 q 846 317 944 493 q 683 0 748 141 q 654 3 672 0 q 633 6 637 6 q 608 3 625 6 q 586 0 591 0 q 554 182 569 108 q 488 512 540 256 q 233 0 359 269 l 186 5 q 160 3 175 5 q 136 0 145 1 q 22 656 94 330 "},"$":{"x_min":23,"x_max":679.953125,"ha":749,"o":"m 75 178 l 92 175 q 156 71 116 107 q 263 36 196 36 l 340 420 q 187 507 245 458 q 129 638 129 556 q 219 827 129 757 q 435 911 310 897 q 441 955 438 933 q 444 996 444 976 q 481 990 459 991 q 505 988 503 988 q 493 951 499 976 q 482 908 486 926 q 586 890 534 908 q 679 842 639 873 q 636 743 651 797 l 619 743 q 568 813 607 788 q 471 851 529 838 l 406 511 q 576 414 516 462 q 636 280 636 366 q 536 63 636 145 q 300 -18 437 -18 q 288 -83 293 -50 q 282 -146 282 -116 l 243 -141 l 221 -144 q 238 -84 229 -121 q 253 -18 248 -48 q 136 1 192 -18 q 23 60 81 21 q 56 119 43 92 q 75 178 68 145 m 518 239 q 481 336 518 296 q 382 402 444 376 l 310 33 q 456 93 394 33 q 518 239 518 153 m 426 855 q 292 806 349 855 q 236 681 236 758 q 271 589 236 627 q 360 532 306 551 l 426 855 "},"\\":{"x_min":55,"x_max":311.109375,"ha":383,"o":"m 240 -125 l 55 1025 l 126 1024 l 311 -125 l 240 -125 "},"Ι":{"x_min":19.4375,"x_max":362.5,"ha":385,"o":"m 172 0 l 100 5 q 47 2 66 5 q 19 0 29 0 q 136 482 86 248 q 211 932 186 716 q 247 927 230 929 q 287 926 263 926 q 336 929 318 926 q 362 932 354 932 q 250 477 297 712 q 172 0 202 241 "},"Ύ":{"x_min":-39,"x_max":1180.453125,"ha":1069,"o":"m 658 380 q 578 583 601 526 q 513 740 555 641 q 433 931 471 840 q 475 927 466 927 q 509 926 484 926 q 553 929 521 926 q 587 931 584 931 q 634 772 615 830 q 756 450 653 715 l 904 674 q 979 800 938 730 q 1051 931 1020 869 l 1109 926 q 1154 929 1138 926 q 1180 931 1170 931 l 1073 794 l 980 663 l 784 387 l 754 236 q 720 0 731 117 q 679 4 702 1 q 644 6 656 6 q 603 4 619 6 q 567 0 587 2 q 620 199 597 90 q 658 380 642 308 m -39 744 l 156 941 q 193 970 174 959 q 231 982 212 982 q 269 966 252 982 q 286 929 286 951 q 266 897 286 918 q 235 870 247 876 l 19 744 l -39 744 "},"Ν":{"x_min":2.78125,"x_max":1000,"ha":1001,"o":"m 68 252 l 126 504 q 176 729 156 625 q 208 945 195 833 q 235 938 228 938 q 249 940 240 938 q 265 945 259 943 q 413 714 345 815 q 575 474 480 612 q 762 208 670 335 l 844 624 q 872 777 858 691 q 894 931 886 862 l 943 926 q 974 928 958 926 q 1000 931 990 930 q 884 460 934 690 q 795 -12 834 230 q 784 -9 793 -11 q 769 -6 776 -7 q 745 -12 752 -8 q 530 315 641 159 l 244 719 l 179 412 q 139 203 158 311 q 108 0 120 95 q 78 3 97 0 q 55 6 59 6 q 25 3 41 6 q 2 0 8 0 l 68 252 "},"-":{"x_min":15.28125,"x_max":380.5625,"ha":446,"o":"m 41 391 q 126 388 69 391 q 212 385 183 385 q 295 388 240 385 q 380 391 351 391 q 365 337 372 368 q 355 271 359 306 q 256 275 316 271 q 187 279 197 279 q 90 275 151 279 q 15 271 29 271 q 31 327 26 304 q 41 391 36 350 "},"Q":{"x_min":46,"x_max":1063,"ha":1103,"o":"m 321 6 q 117 149 189 41 q 46 398 46 256 q 212 789 46 626 q 605 953 378 953 q 933 842 804 953 q 1063 534 1063 732 q 989 262 1063 390 q 791 59 915 134 q 708 24 754 40 q 605 -7 662 8 q 809 -53 698 -30 q 1008 -90 921 -76 l 1008 -98 q 983 -144 994 -118 q 965 -194 972 -169 q 674 -82 768 -116 q 460 -16 581 -47 q 321 6 394 -11 m 186 413 q 261 147 186 250 q 494 44 337 44 q 804 194 686 44 q 923 539 923 344 q 836 787 923 685 q 605 890 750 890 q 336 778 444 890 q 211 571 229 667 q 189 451 192 476 q 186 413 186 427 "},"ς":{"x_min":28,"x_max":640.5,"ha":674,"o":"m 475 -61 q 336 13 470 -29 q 115 115 202 56 q 28 302 28 173 q 135 564 28 459 q 403 669 243 669 q 523 651 465 669 q 640 599 582 633 l 606 494 l 581 494 q 506 583 554 548 q 403 618 458 618 q 228 538 297 618 q 159 350 159 458 q 268 172 159 229 q 478 100 371 138 q 585 -17 585 63 q 546 -127 585 -76 q 446 -227 508 -177 l 404 -191 q 455 -131 436 -163 q 475 -61 475 -100 "},"M":{"x_min":1.390625,"x_max":1138.890625,"ha":1168,"o":"m 213 932 q 251 929 224 932 q 280 926 279 926 q 315 928 295 926 q 345 932 334 930 q 356 876 349 907 q 370 815 363 844 l 444 539 l 538 188 l 784 568 q 1011 932 897 750 l 1069 926 q 1106 928 1086 926 q 1138 932 1126 930 q 1035 471 1087 751 q 965 0 983 191 q 919 3 947 0 q 887 6 891 6 q 844 3 872 6 q 808 0 816 0 q 856 176 833 87 q 898 362 879 265 l 980 761 l 670 269 l 593 145 q 557 84 577 122 q 510 0 536 47 l 464 0 q 394 252 429 126 q 324 504 359 379 q 254 757 288 630 l 193 461 q 148 224 170 349 q 113 0 126 98 l 59 5 q 31 2 51 5 q 1 0 12 0 q 125 468 68 220 q 213 932 183 716 "},"Ψ":{"x_min":94,"x_max":1084.28125,"ha":1067,"o":"m 628 926 q 669 929 641 926 q 702 933 698 933 q 632 665 662 796 q 566 345 603 535 q 630 347 605 345 q 721 362 656 349 q 836 472 785 375 q 910 715 887 569 q 937 933 923 823 l 1009 926 l 1084 933 q 1010 592 1048 761 q 878 342 973 422 q 550 262 784 262 q 531 150 544 223 q 512 0 519 77 l 444 5 q 413 4 424 5 q 363 0 402 4 q 397 130 374 38 q 431 267 420 222 q 198 332 302 267 q 94 520 94 398 l 97 595 l 130 777 l 154 933 l 222 926 l 300 929 l 252 726 q 230 616 239 675 q 222 511 222 557 q 288 385 222 425 q 449 345 355 345 q 489 547 469 442 q 526 747 510 653 q 552 933 542 841 q 589 929 564 933 q 628 926 614 926 "},"C":{"x_min":43,"x_max":916.609375,"ha":876,"o":"m 609 889 q 300 747 417 889 q 183 411 183 605 q 257 147 183 251 q 487 43 331 43 q 653 80 576 43 q 808 186 730 117 l 819 173 q 794 111 805 145 q 776 43 783 77 q 628 -2 702 13 q 479 -18 554 -18 q 323 0 406 -18 q 116 148 190 36 q 43 402 43 259 q 210 791 43 629 q 605 953 377 953 q 766 934 684 953 q 916 883 848 916 q 887 825 901 859 q 869 761 874 791 l 851 761 q 609 889 767 889 "},"œ":{"x_min":9,"x_max":1154.84375,"ha":1204,"o":"m 678 265 q 725 109 678 171 q 862 47 772 47 q 974 76 918 47 q 1079 155 1029 106 l 1095 140 q 1063 50 1075 100 q 954 0 1010 17 q 842 -18 899 -18 q 697 12 764 -18 q 591 107 630 43 q 308 -18 483 -18 q 92 61 175 -18 q 9 274 9 140 q 120 552 9 432 q 387 672 231 672 q 651 551 551 672 q 773 642 712 612 q 914 672 835 672 q 1088 596 1021 672 q 1154 414 1154 521 l 1152 336 l 917 336 l 683 336 q 678 265 678 306 m 134 234 q 177 93 134 152 q 301 35 221 35 q 500 157 432 35 q 568 422 568 280 q 522 563 568 506 q 394 621 476 621 q 245 551 305 621 q 159 394 185 481 q 134 234 134 308 m 867 389 l 1031 389 l 1035 460 q 1001 572 1035 523 q 904 621 967 621 q 774 551 824 621 q 700 389 724 482 l 867 389 "},"!":{"x_min":62,"x_max":373,"ha":446,"o":"m 149 -13 q 86 10 111 -13 q 62 71 62 34 q 86 130 62 105 q 145 155 111 155 q 205 130 181 155 q 230 70 230 106 q 216 18 230 50 q 149 -13 203 -13 m 217 825 q 236 909 217 872 q 297 946 256 946 q 350 929 328 946 q 373 884 373 912 q 364 836 373 863 q 349 784 356 809 l 186 248 l 149 248 l 217 825 "},"ç":{"x_min":11,"x_max":613.78125,"ha":626,"o":"m 308 -18 q 95 63 180 -18 q 11 274 11 145 q 119 551 11 434 q 387 669 227 669 q 495 657 447 669 q 613 616 542 645 q 590 556 599 583 q 575 501 580 529 l 554 501 q 489 586 530 554 q 392 618 448 618 q 206 503 273 618 q 140 258 140 388 q 185 107 140 169 q 316 46 230 46 q 433 69 376 46 q 522 139 490 93 l 542 123 q 509 34 522 80 q 410 -4 461 9 q 308 -18 359 -18 m 117 -205 q 198 -235 165 -225 q 266 -246 231 -246 q 327 -234 302 -246 q 353 -190 353 -222 q 339 -147 353 -166 q 302 -126 325 -128 q 253 -128 274 -126 q 217 -133 231 -131 l 261 -1 l 307 -1 l 281 -81 q 302 -76 290 -77 q 327 -75 313 -75 q 413 -105 377 -75 q 449 -183 449 -135 q 404 -273 449 -242 q 298 -304 359 -304 q 208 -293 245 -304 q 117 -256 170 -283 l 117 -205 "},"{":{"x_min":116,"x_max":567.390625,"ha":683,"o":"m 490 911 q 420 872 445 905 q 395 794 395 838 l 395 745 l 395 583 q 367 434 395 491 q 263 352 340 376 q 366 272 338 331 q 395 124 395 213 l 395 -36 q 412 -151 395 -110 q 470 -199 429 -192 q 529 -206 511 -206 q 567 -206 547 -206 l 567 -277 q 386 -240 458 -277 q 314 -107 314 -204 l 314 -29 l 314 130 q 295 244 314 194 q 224 306 276 294 q 161 317 192 316 q 116 318 129 318 l 116 389 q 268 429 223 389 q 314 577 314 470 l 314 737 q 338 903 314 842 q 449 977 363 963 q 567 983 503 983 l 567 914 l 490 911 "},"X":{"x_min":-95.828125,"x_max":784.71875,"ha":699,"o":"m 154 287 l 301 465 l 183 712 l 125 836 l 70 932 l 148 926 q 200 929 182 926 q 229 931 219 931 q 269 824 245 881 q 309 729 293 766 l 381 561 l 494 718 q 641 931 572 820 l 704 926 q 756 929 737 926 q 784 931 775 931 q 675 820 725 875 q 559 690 625 765 l 408 506 l 547 201 q 645 0 593 98 l 586 5 l 485 0 q 455 92 468 55 q 417 187 442 129 l 328 403 l 177 197 q 119 115 147 156 q 44 0 91 73 l -13 5 q -45 4 -34 5 q -95 0 -56 4 q 15 122 -22 79 q 154 287 52 166 "},"ô":{"x_min":9,"x_max":697,"ha":761,"o":"m 370 669 q 605 596 514 669 q 697 383 697 524 q 591 105 697 225 q 332 -15 485 -15 q 97 57 186 -15 q 9 274 9 130 q 15 348 9 320 q 52 455 22 376 q 170 601 81 534 q 370 669 259 669 m 576 744 l 466 888 l 298 744 l 231 744 l 437 978 l 516 978 l 626 744 l 576 744 m 134 234 q 177 94 134 152 q 302 36 221 36 q 500 157 432 36 q 569 421 569 279 q 523 561 569 504 q 395 618 477 618 q 245 548 306 618 q 159 393 185 479 q 134 234 134 307 "},"#":{"x_min":78,"x_max":972.4375,"ha":1050,"o":"m 499 647 l 675 647 l 792 971 l 877 970 l 763 647 l 972 647 l 947 578 l 736 578 l 669 390 l 896 390 l 873 321 l 644 321 l 531 0 l 446 0 l 559 321 l 381 321 l 266 0 l 182 0 l 295 321 l 78 321 l 101 390 l 321 390 l 385 578 l 153 578 l 176 647 l 411 647 l 526 971 l 610 971 l 499 647 m 471 578 l 408 390 l 587 390 l 650 578 l 471 578 "},"ι":{"x_min":8,"x_max":271.890625,"ha":335,"o":"m 128 656 q 201 648 166 648 q 271 655 238 648 q 185 311 217 474 q 153 0 153 148 q 117 3 134 1 q 77 5 99 5 l 8 0 q 70 230 45 130 q 112 442 95 330 q 128 656 128 554 "},"Ά":{"x_min":-89,"x_max":757,"ha":808,"o":"m 495 956 l 525 947 l 558 956 q 625 544 608 641 q 675 297 641 447 q 757 0 708 148 q 713 3 741 0 q 677 6 686 6 q 627 4 648 6 q 593 0 606 1 q 574 186 593 80 q 545 349 555 292 l 390 354 l 233 349 l 156 213 q 97 108 126 162 q 40 0 68 55 q 1 3 24 0 q -25 6 -22 6 q -62 4 -45 6 q -89 0 -79 1 q 233 486 66 217 q 495 956 399 754 m 3 744 l 198 941 q 235 970 216 959 q 273 982 254 982 q 311 966 294 982 q 327 929 327 951 q 308 897 327 918 q 277 870 288 876 l 61 744 l 3 744 m 389 417 l 530 421 l 464 762 l 266 421 l 389 417 "},")":{"x_min":-115.28125,"x_max":296,"ha":372,"o":"m 207 572 q 178 767 207 669 q 98 943 150 864 l 140 963 q 255 748 215 860 q 296 515 296 636 q 194 141 296 312 q -81 -156 93 -29 l -115 -128 q 124 179 41 -7 q 207 572 207 365 "},"ε":{"x_min":32,"x_max":559.78125,"ha":642,"o":"m 533 512 q 459 586 502 558 q 367 615 416 615 q 277 582 315 615 q 240 497 240 549 q 286 405 240 430 q 415 369 333 381 q 408 329 408 351 l 408 309 q 361 315 398 310 q 318 321 324 321 q 209 283 254 321 q 165 182 165 246 q 215 78 165 115 q 334 42 265 42 q 442 66 394 42 q 544 139 490 91 q 532 41 532 93 q 319 -15 434 -15 q 120 32 208 -15 q 32 182 32 80 q 81 302 32 255 q 207 367 130 348 q 141 427 166 391 q 115 508 115 463 q 183 628 115 587 q 337 669 251 669 q 452 650 394 669 q 559 598 511 631 q 544 560 550 578 q 533 512 538 541 "},"Δ":{"x_min":-98,"x_max":760,"ha":833,"o":"m 760 0 q 544 3 687 0 q 329 8 401 8 q 114 3 257 8 q -98 0 -28 0 q 212 458 57 219 q 505 932 367 697 l 552 932 q 642 479 592 702 q 760 0 693 255 m 333 73 l 367 73 q 600 84 496 73 q 472 722 545 391 q 331 522 396 620 q 202 321 265 424 q 62 84 139 217 q 190 75 116 78 q 333 73 265 73 "},"â":{"x_min":-11,"x_max":572.328125,"ha":642,"o":"m 161 -14 q 38 29 88 -14 q -11 147 -11 72 q 97 317 -11 270 q 310 374 199 344 q 433 492 420 404 q 403 583 433 549 q 315 618 373 618 q 210 591 255 618 q 134 512 165 565 l 111 519 q 122 581 122 549 l 119 618 q 235 661 195 651 q 315 672 275 672 q 472 633 405 672 q 539 511 539 594 q 532 434 539 479 q 525 375 526 390 l 477 143 q 469 92 473 117 q 482 63 469 78 q 508 48 494 48 q 554 58 529 48 l 572 23 q 452 -10 519 -10 q 386 15 408 -10 q 358 90 365 41 q 266 11 310 37 q 161 -14 222 -14 m 492 744 l 383 888 l 213 744 l 149 744 l 354 978 l 432 978 l 539 744 l 492 744 m 103 159 q 131 86 103 115 q 204 58 159 58 q 311 99 259 58 q 375 194 363 140 l 402 345 q 176 283 250 313 q 103 159 103 254 "},"}":{"x_min":115,"x_max":566,"ha":683,"o":"m 368 577 q 404 437 368 486 q 528 389 440 389 l 566 389 l 566 318 q 414 277 461 318 q 368 130 368 237 l 368 -29 q 319 -231 368 -185 q 115 -277 271 -277 l 115 -206 q 241 -182 196 -206 q 287 -83 287 -158 l 287 -36 l 287 124 q 313 272 287 215 q 417 352 340 329 q 311 432 335 380 q 287 583 287 485 l 287 746 q 269 860 287 817 q 191 914 252 902 l 115 914 l 115 983 q 317 939 266 983 q 368 815 368 896 l 368 737 l 368 577 "},"Ä":{"x_min":-90,"x_max":757,"ha":810,"o":"m 496 956 l 526 948 l 560 956 q 612 629 585 796 q 675 301 640 462 q 757 0 711 140 q 713 3 741 0 q 677 6 686 6 q 628 4 649 6 q 593 0 606 1 q 574 185 593 78 q 545 349 555 291 l 392 354 l 232 349 l 157 215 q 79 78 83 85 q 39 0 75 70 q 4 3 26 0 q -24 6 -17 6 q -61 4 -44 6 q -90 0 -78 1 q 121 308 8 135 q 333 650 233 480 q 496 956 432 819 m 438 1204 q 486 1181 467 1204 q 509 1129 509 1159 q 486 1079 509 1098 q 436 1061 464 1061 q 385 1081 407 1061 q 363 1131 363 1102 q 385 1183 363 1162 q 438 1204 407 1204 m 670 1204 q 720 1181 698 1204 q 743 1130 743 1159 q 720 1081 743 1101 q 670 1061 698 1061 q 620 1081 641 1061 q 600 1131 600 1102 q 620 1182 600 1160 q 670 1204 640 1204 m 392 418 q 460 418 414 418 q 531 418 505 418 l 467 762 l 267 418 q 329 418 287 418 q 392 418 371 418 "},"a":{"x_min":-12,"x_max":574.109375,"ha":640,"o":"m 163 -14 q 38 29 89 -14 q -12 145 -12 72 q 96 316 -12 270 q 311 372 200 342 q 434 492 421 402 q 402 583 434 549 q 314 618 371 618 q 135 513 194 618 l 113 519 q 119 550 117 536 q 122 583 122 565 l 121 618 q 222 658 181 645 q 314 672 264 672 q 472 633 404 672 q 541 509 541 594 q 535 444 541 483 q 522 376 529 405 l 478 143 q 469 91 474 117 q 482 63 469 78 q 507 46 494 47 q 528 49 517 46 q 554 57 540 52 l 574 20 q 454 -14 517 -14 q 388 13 410 -14 q 357 89 367 40 q 267 11 311 37 q 163 -14 222 -14 m 102 161 q 131 86 102 115 q 205 57 160 57 q 312 98 260 57 q 375 194 363 140 l 404 347 q 174 284 247 313 q 102 161 102 254 "},"=":{"x_min":169.4375,"x_max":969.453125,"ha":1139,"o":"m 969 499 l 169 499 l 169 564 l 969 564 l 969 499 m 969 248 l 169 248 l 169 315 l 969 315 l 969 248 "},"N":{"x_min":2.78125,"x_max":1000,"ha":1001,"o":"m 68 252 l 126 504 q 176 729 156 625 q 208 945 195 833 q 235 938 228 938 q 249 940 240 938 q 265 945 259 943 q 413 714 345 815 q 575 474 480 612 q 762 208 670 335 l 844 624 q 872 777 858 691 q 894 931 886 862 l 943 926 q 974 928 958 926 q 1000 931 990 930 q 884 460 934 690 q 795 -12 834 230 q 784 -9 793 -11 q 769 -6 776 -7 q 745 -12 752 -8 q 530 315 641 159 l 244 719 l 179 412 q 139 203 158 311 q 108 0 120 95 q 78 3 97 0 q 55 6 59 6 q 25 3 41 6 q 2 0 8 0 l 68 252 "},"ρ":{"x_min":-81.9375,"x_max":696,"ha":761,"o":"m 113 -25 q 81 -189 97 -103 q 50 -372 66 -274 q 22 -367 38 -370 q -12 -365 5 -365 q -45 -367 -27 -365 q -81 -372 -62 -370 q -6 -77 -37 -210 q 50 209 23 55 q 102 447 76 362 q 196 601 127 533 q 394 669 265 669 q 609 587 522 669 q 696 380 696 506 q 594 107 696 228 q 345 -14 493 -14 q 224 24 277 -14 q 144 126 170 62 l 113 -25 m 176 243 q 213 109 176 158 q 333 60 251 60 q 512 172 450 60 q 574 412 574 284 q 537 553 574 491 q 426 615 500 615 q 270 537 333 615 q 194 388 208 460 q 178 295 180 315 q 176 243 176 276 "},"2":{"x_min":-5,"x_max":653,"ha":749,"o":"m 318 99 q 460 106 361 99 q 590 114 559 114 q 577 36 577 72 l 577 0 l 296 7 q 119 3 226 7 q -5 0 11 0 l 0 51 q 224 240 105 138 q 429 458 343 341 q 515 690 515 576 q 475 806 515 759 q 366 854 435 854 q 261 815 304 854 q 196 713 218 777 l 174 713 q 156 754 168 733 q 129 794 144 775 q 389 910 238 910 q 578 849 503 910 q 653 676 653 789 q 569 464 653 568 q 363 269 485 361 q 138 99 242 176 l 318 99 "},"ü":{"x_min":43,"x_max":709.65625,"ha":767,"o":"m 587 0 l 527 6 q 491 3 511 6 q 460 0 471 1 q 475 50 465 13 q 496 130 486 86 q 378 21 441 58 q 231 -15 315 -15 q 97 30 152 -15 q 43 155 43 76 q 71 383 43 239 q 124 655 99 528 q 162 648 140 651 q 190 645 184 645 q 256 655 223 650 q 187 379 206 467 q 168 186 168 291 q 190 104 168 136 q 259 66 212 71 q 497 214 449 66 q 574 655 545 363 q 611 649 591 651 q 643 647 630 647 q 674 650 654 647 q 709 655 695 653 q 625 320 663 511 q 587 0 587 129 m 333 924 q 384 903 359 924 q 397 879 391 892 q 404 849 404 867 q 392 807 404 825 q 374 792 388 804 q 333 781 360 781 q 282 802 304 781 q 261 853 261 824 q 282 903 261 883 q 333 924 304 924 m 568 924 q 619 903 595 924 q 632 879 626 892 q 638 849 638 867 q 627 807 638 825 q 611 792 623 804 q 568 781 598 781 q 517 802 538 781 q 496 853 496 824 q 517 903 496 883 q 568 924 538 924 "},"Z":{"x_min":-26.390625,"x_max":815.28125,"ha":785,"o":"m -26 24 q 311 448 158 251 q 623 865 465 645 l 454 862 q 308 855 379 862 q 140 839 237 849 q 152 879 148 862 q 159 932 155 896 q 315 929 205 932 q 433 926 425 926 l 540 926 l 815 932 l 815 915 q 609 651 695 763 q 411 394 522 538 q 168 72 301 250 l 330 75 q 500 80 423 75 q 745 101 577 85 q 728 56 736 84 q 718 0 720 27 q 486 4 640 0 q 254 8 331 8 q 118 7 183 8 q -26 0 54 6 l -26 24 "},"u":{"x_min":43,"x_max":708.265625,"ha":765,"o":"m 587 0 l 526 6 q 491 3 511 6 q 461 0 472 1 q 494 129 484 62 q 378 22 441 59 q 233 -14 315 -14 q 97 30 151 -14 q 43 155 43 75 q 68 360 43 225 q 125 656 93 494 q 188 645 161 645 q 221 648 204 645 q 256 656 238 651 q 187 381 207 471 q 167 185 167 290 q 189 104 167 136 q 261 66 212 71 q 497 214 450 66 q 574 656 545 363 q 641 647 606 647 q 708 656 674 647 q 625 318 663 510 q 587 0 587 126 "},"k":{"x_min":4.171875,"x_max":673.609375,"ha":663,"o":"m 188 1025 q 217 1020 204 1022 q 252 1018 230 1018 q 277 1018 265 1018 q 323 1025 288 1019 l 297 927 l 258 719 l 197 386 l 220 383 q 374 493 304 429 q 534 655 444 556 q 606 648 573 648 q 670 655 633 648 l 673 640 q 581 579 641 620 q 466 497 522 537 l 318 387 q 608 0 451 195 q 565 3 594 0 q 529 6 536 6 q 482 4 502 6 q 450 0 462 1 q 331 177 383 104 q 213 337 280 251 l 186 336 q 160 172 173 262 q 136 0 147 83 q 100 3 125 0 q 70 6 76 6 q 31 3 55 6 q 4 0 6 0 q 188 1025 143 506 "},"Η":{"x_min":13.890625,"x_max":997,"ha":1011,"o":"m 275 927 l 352 932 q 317 811 330 865 q 258 533 304 758 l 509 529 l 780 533 l 809 684 q 837 819 827 761 q 848 932 848 877 q 891 928 864 932 q 923 925 917 925 q 965 928 938 925 q 997 932 992 932 q 880 477 928 716 q 808 0 831 237 l 737 5 q 706 4 718 5 q 659 0 694 4 q 696 143 675 55 q 729 283 718 231 l 766 462 l 505 465 l 244 465 l 212 312 q 189 185 200 245 q 161 0 179 125 l 90 5 q 60 4 72 5 q 13 0 48 4 q 123 450 70 186 q 202 932 176 715 l 275 927 "},"Α":{"x_min":-89,"x_max":757,"ha":808,"o":"m 495 956 l 525 947 l 558 956 q 625 544 608 641 q 675 297 641 447 q 757 0 708 148 q 713 3 741 0 q 677 6 686 6 q 627 4 648 6 q 593 0 606 1 q 574 186 593 80 q 545 349 555 292 l 390 354 l 233 349 l 156 213 q 97 108 126 162 q 40 0 67 55 q 1 3 24 0 q -25 6 -22 6 q -62 4 -45 6 q -89 0 -79 1 q 233 486 66 217 q 495 956 399 754 m 389 417 l 530 421 l 464 762 l 266 421 l 389 417 "},"ß":{"x_min":8,"x_max":685,"ha":747,"o":"m 49 187 q 109 550 76 351 q 219 887 142 750 q 459 1025 295 1025 q 609 984 544 1025 q 675 862 675 943 q 575 702 675 781 q 475 580 475 623 q 580 440 475 534 q 685 266 685 346 q 592 74 685 155 q 386 -6 500 -6 q 257 30 322 -6 q 271 88 262 58 q 292 153 279 119 q 346 82 314 107 q 428 57 378 57 q 531 104 489 57 q 574 216 574 152 q 469 376 574 290 q 365 532 365 463 q 476 685 365 596 q 587 856 587 774 q 550 941 587 908 q 459 974 513 974 q 308 885 342 974 q 242 604 274 796 l 185 285 q 161 142 176 234 q 141 0 146 51 q 74 10 107 4 q 39 6 55 10 q 8 0 24 2 l 49 187 "},"é":{"x_min":9,"x_max":616,"ha":664,"o":"m 142 236 q 192 100 142 153 q 322 47 242 47 q 433 77 376 47 q 538 155 490 108 l 553 140 q 536 95 545 119 q 524 50 528 70 q 415 0 471 17 q 302 -18 360 -18 q 89 61 170 -18 q 9 273 9 140 q 114 550 9 431 q 377 669 220 669 q 547 594 479 669 q 616 418 616 520 q 613 382 616 403 q 610 336 611 360 l 379 336 l 147 336 q 142 236 142 292 m 274 743 l 467 942 q 504 970 486 960 q 543 981 521 981 q 581 966 564 981 q 599 930 599 951 q 580 897 599 916 q 545 869 561 878 l 331 743 l 274 743 m 324 389 l 488 389 q 495 452 495 426 q 460 567 495 516 q 364 618 426 618 q 232 550 282 618 q 159 389 182 483 l 324 389 "},"s":{"x_min":-23,"x_max":468.734375,"ha":526,"o":"m 42 179 q 91 79 50 118 q 196 41 133 41 q 293 72 251 41 q 335 158 335 104 q 195 303 335 240 q 55 463 55 365 q 122 612 55 555 q 284 669 189 669 q 380 657 334 669 q 468 620 427 646 q 434 509 447 570 l 416 509 q 364 589 396 563 q 277 616 332 616 q 196 581 234 616 q 159 503 159 546 q 300 371 159 435 q 441 217 441 306 q 366 48 441 112 q 184 -15 292 -15 q 72 2 129 -15 q -23 51 15 19 q -5 115 -14 84 q 17 179 3 145 l 42 179 "},"B":{"x_min":12,"x_max":718,"ha":760,"o":"m 202 933 l 303 927 q 390 930 328 927 q 455 933 451 933 q 640 887 562 933 q 718 744 718 842 q 639 577 718 634 q 438 498 560 519 q 611 439 544 488 q 679 291 679 390 q 572 79 679 158 q 328 0 466 0 l 130 4 l 12 4 q 119 442 71 203 q 202 933 166 682 m 593 727 q 547 844 593 801 q 427 887 501 887 q 377 884 405 887 q 325 878 349 881 q 285 708 307 812 q 248 521 263 605 q 493 561 394 521 q 593 727 593 601 m 259 55 q 460 114 373 55 q 548 282 548 174 q 486 420 548 373 q 328 468 424 468 l 238 468 q 193 253 211 347 q 163 60 175 160 q 223 56 203 57 q 259 55 242 55 "},"?":{"x_min":130,"x_max":545,"ha":600,"o":"m 214 155 q 283 124 271 155 q 296 86 295 93 q 298 68 298 80 q 296 50 298 57 q 288 30 295 43 q 259 1 282 16 q 210 -13 236 -13 q 154 9 178 -13 q 130 70 130 32 q 144 121 130 88 q 214 155 159 155 m 318 235 q 197 278 246 235 q 148 394 148 322 q 222 542 148 476 q 361 646 292 593 q 438 792 438 713 q 408 866 438 836 q 332 896 378 896 q 272 879 299 896 q 211 833 245 863 l 195 835 l 200 883 l 199 926 q 336 947 260 947 q 484 896 424 947 q 545 759 545 845 q 470 590 545 661 q 320 482 397 537 q 237 364 243 426 q 260 306 237 325 q 323 288 284 288 q 357 293 342 288 l 341 235 l 318 235 "},"H":{"x_min":13.890625,"x_max":998.609375,"ha":1011,"o":"m 204 932 l 273 926 q 318 929 287 926 q 351 932 350 932 q 320 823 333 876 q 258 533 308 770 l 508 529 l 779 533 l 809 684 q 838 818 827 761 q 848 931 848 876 q 890 927 869 929 q 918 925 912 925 q 960 927 943 925 q 998 932 977 929 q 884 490 931 727 q 806 0 837 252 l 736 5 q 698 2 723 5 q 659 0 673 0 q 697 143 681 81 q 727 282 712 204 l 765 464 l 505 465 l 244 465 l 212 311 q 162 0 184 164 q 125 4 148 1 q 90 6 101 6 q 46 3 73 6 q 13 0 19 0 q 121 445 69 184 q 204 932 173 705 "},"ν":{"x_min":23,"x_max":602,"ha":657,"o":"m 238 290 l 275 130 q 401 320 338 225 q 470 536 470 438 q 449 641 470 590 q 586 660 511 641 q 599 603 597 614 q 602 576 602 593 q 553 424 602 505 q 404 199 504 343 q 278 0 303 56 q 228 8 253 3 q 204 5 217 8 q 177 0 191 2 q 134 215 157 115 q 82 430 111 316 q 23 652 52 544 q 117 647 63 647 l 170 651 q 194 479 178 563 q 238 290 210 395 "},"î":{"x_min":8,"x_max":402.671875,"ha":335,"o":"m 130 654 q 167 650 146 652 q 200 647 188 647 q 239 649 224 647 q 274 654 255 651 q 184 310 216 469 q 152 0 152 152 q 114 4 138 1 q 82 6 91 6 q 61 6 71 6 q 8 0 51 5 q 66 218 38 102 q 112 446 94 333 q 130 654 130 559 m 352 744 l 242 888 l 75 744 l 8 744 l 215 978 l 291 978 l 402 744 l 352 744 "},"c":{"x_min":12,"x_max":613.390625,"ha":626,"o":"m 306 -15 q 96 66 180 -15 q 12 273 12 147 q 119 551 12 434 q 385 669 227 669 q 498 655 442 669 q 613 614 553 641 q 590 556 599 584 q 576 499 581 529 l 554 499 q 487 584 527 553 q 391 616 447 616 q 205 503 270 616 q 140 261 140 391 q 185 111 140 175 q 314 48 231 48 q 432 71 374 48 q 520 140 489 94 l 542 124 q 522 81 530 98 q 507 37 514 63 q 306 -15 413 -15 "},"¶":{"x_min":173,"x_max":736.890625,"ha":590,"o":"m 503 968 l 736 968 l 724 910 l 666 910 l 473 4 l 415 4 l 607 910 l 498 909 l 306 3 l 247 4 l 364 558 q 227 602 281 558 q 173 718 173 645 q 264 882 173 797 q 503 968 356 968 "},"β":{"x_min":-91,"x_max":735,"ha":792,"o":"m -15 -366 q -52 -366 -34 -366 q -91 -372 -71 -366 q -24 -109 -50 -226 q 43 208 2 6 q 124 618 85 410 q 252 926 163 827 q 471 1025 342 1025 q 655 963 576 1025 q 735 798 735 901 q 679 630 735 700 q 527 528 624 561 q 646 437 602 494 q 690 300 690 379 q 599 77 690 169 q 378 -14 509 -14 q 246 14 305 -14 q 145 103 186 43 q 88 -138 113 -16 q 50 -372 63 -260 q 22 -368 41 -370 q -15 -366 3 -366 m 340 567 l 396 567 q 565 634 512 567 q 618 825 618 701 q 580 930 618 887 q 479 974 543 974 q 387 944 439 974 q 287 777 336 915 q 211 478 238 638 q 184 220 184 317 q 228 95 184 146 q 346 44 273 44 q 506 135 449 44 q 564 336 564 227 q 511 461 564 419 q 371 503 459 503 l 327 503 l 340 567 "},"Μ":{"x_min":1.390625,"x_max":1138.890625,"ha":1168,"o":"m 213 932 q 251 929 224 932 q 280 926 279 926 q 315 928 295 926 q 345 932 334 930 q 356 876 349 907 q 370 815 363 844 l 444 539 l 538 188 l 784 568 q 1011 932 897 750 l 1069 926 q 1106 928 1086 926 q 1138 932 1126 930 q 1035 471 1087 751 q 965 0 983 191 q 919 3 947 0 q 887 6 891 6 q 844 3 872 6 q 808 0 816 0 q 856 176 833 87 q 898 362 879 265 l 980 761 l 670 269 l 593 145 q 557 84 577 122 q 510 0 536 47 l 464 0 q 394 252 429 126 q 324 504 359 379 q 254 757 288 630 l 193 461 q 148 224 170 349 q 113 0 126 98 l 59 5 q 31 2 51 5 q 1 0 12 0 q 125 468 68 220 q 213 932 183 716 "},"Ό":{"x_min":-39,"x_max":1226,"ha":1269,"o":"m 781 953 q 1097 847 969 953 q 1226 555 1226 741 q 1059 150 1226 318 q 655 -18 892 -18 q 335 88 461 -18 q 210 387 210 195 q 237 572 210 440 q 420 828 264 704 q 781 953 577 953 m -39 744 l 156 941 q 193 970 174 959 q 231 982 212 982 q 269 966 252 982 q 286 929 286 951 q 266 897 286 918 q 235 870 247 876 l 19 744 l -39 744 m 772 888 q 467 735 583 888 q 352 386 352 583 q 433 139 352 236 q 662 43 515 43 q 968 189 851 43 q 1086 529 1086 336 q 1076 651 1086 596 q 1033 763 1066 705 q 929 854 1001 821 q 772 888 858 888 "},"Ή":{"x_min":-39,"x_max":1234.609375,"ha":1247,"o":"m 440 931 l 509 926 q 554 929 523 926 q 587 931 586 931 q 556 823 569 876 q 494 533 544 770 l 744 529 l 1015 533 l 1045 684 q 1074 818 1063 761 q 1084 931 1084 876 q 1126 927 1105 929 q 1154 925 1148 925 q 1196 927 1179 925 q 1234 931 1213 929 q 1120 490 1167 727 q 1042 0 1073 252 l 972 5 q 934 2 959 5 q 895 0 909 0 q 933 143 917 81 q 963 282 948 204 l 1001 464 l 741 465 l 480 465 l 448 311 q 398 0 420 164 q 361 4 384 1 q 326 6 337 6 q 282 3 309 6 q 249 0 255 0 q 357 445 305 184 q 440 931 409 705 m -39 744 l 156 941 q 193 970 174 959 q 231 982 212 982 q 269 966 252 982 q 286 929 286 951 q 266 897 286 918 q 235 870 247 876 l 19 744 l -39 744 "},"¥":{"x_min":38.890625,"x_max":762.5,"ha":749,"o":"m 277 290 q 157 290 237 290 q 38 290 77 290 l 52 344 q 146 340 90 344 q 204 337 202 337 l 290 337 l 308 438 l 73 436 l 83 489 l 294 485 q 218 673 252 593 q 123 888 184 753 q 156 885 133 888 q 193 881 180 881 q 223 885 202 881 q 255 888 244 888 q 294 770 273 828 q 337 653 315 711 l 395 496 l 495 644 q 638 888 570 758 l 692 881 q 733 885 705 881 q 762 888 761 888 q 659 758 701 813 q 566 633 616 702 l 456 484 l 668 489 l 658 436 l 419 436 l 401 337 q 518 339 458 337 q 637 344 577 341 l 626 290 q 509 290 587 290 q 391 290 430 290 q 363 137 376 221 q 343 0 351 53 q 306 3 323 1 q 266 5 290 5 l 202 0 q 242 133 225 65 q 277 290 259 202 "},"(":{"x_min":47,"x_max":462.5,"ha":372,"o":"m 139 234 q 245 -136 139 27 l 205 -156 q 88 60 129 -50 q 47 291 47 170 q 149 664 47 494 q 429 963 252 835 l 462 936 q 222 624 305 807 q 139 234 139 441 "},"U":{"x_min":75,"x_max":991.671875,"ha":992,"o":"m 266 926 q 309 929 281 926 q 350 932 337 932 q 275 692 303 786 q 227 498 247 598 q 208 300 208 398 l 208 276 l 208 240 q 280 100 208 150 q 448 50 352 50 q 594 81 528 50 q 707 184 661 113 q 787 387 752 254 q 843 668 821 521 q 874 932 865 815 q 906 927 895 929 q 933 926 916 926 q 964 928 947 926 q 991 932 981 930 q 898 528 938 723 q 820 230 858 333 q 689 55 781 126 q 426 -15 597 -15 q 178 46 281 -15 q 75 246 75 108 q 79 305 75 282 q 107 439 83 329 q 158 685 131 548 q 198 932 184 821 l 266 926 "},"γ":{"x_min":-22.21875,"x_max":688.890625,"ha":669,"o":"m 201 66 q 160 384 201 197 q 40 584 119 571 l -22 577 l -16 636 q 84 667 27 667 q 227 581 180 667 q 288 378 275 496 q 312 161 302 261 q 443 394 383 276 q 562 652 502 512 l 609 650 q 688 656 644 650 q 556 447 626 560 q 436 246 486 333 q 329 42 387 159 q 248 -344 283 -144 q 209 -337 225 -340 q 179 -334 193 -334 q 138 -339 162 -334 q 101 -344 113 -343 q 167 -132 133 -243 q 201 66 201 -20 "},"α":{"x_min":11,"x_max":820.71875,"ha":847,"o":"m 685 326 q 729 120 708 201 q 761 0 751 40 l 695 2 l 629 0 q 614 73 623 30 q 595 156 605 115 q 468 29 538 73 q 304 -14 398 -14 q 93 65 176 -14 q 11 273 11 145 q 118 548 11 427 q 380 669 226 669 q 543 625 480 669 q 652 488 605 581 q 674 542 664 513 q 708 655 684 570 l 763 651 l 820 655 q 685 326 744 493 m 135 238 q 178 93 135 150 q 307 37 222 37 q 495 136 419 37 q 572 351 572 236 q 522 534 572 450 q 380 618 472 618 q 198 495 261 618 q 135 238 135 372 "},"F":{"x_min":14,"x_max":668.0625,"ha":619,"o":"m 204 932 l 454 928 l 668 932 q 644 847 652 894 q 568 857 605 854 q 483 860 530 860 l 331 860 q 306 771 318 819 q 283 665 294 722 l 256 531 l 377 531 q 488 533 458 531 q 577 542 519 535 q 565 502 569 522 q 559 454 562 481 q 477 463 516 460 q 388 466 437 466 l 244 466 l 211 310 q 183 177 206 285 q 161 0 161 70 q 118 4 136 2 q 87 6 99 6 q 45 3 72 6 q 14 0 19 0 q 123 445 77 218 q 204 932 168 673 "},"­":{"x_min":-33.328125,"x_max":662.5,"ha":683,"o":"m -18 375 l 662 375 l 648 290 l -33 290 l -18 375 "},":":{"x_min":51,"x_max":322,"ha":426,"o":"m 135 159 q 195 135 171 159 q 219 75 219 111 q 195 15 219 39 q 135 -8 171 -8 q 75 17 100 -8 q 51 78 51 42 q 53 94 51 88 q 62 114 56 100 q 88 143 67 128 q 135 159 109 159 m 238 646 q 296 621 271 646 q 322 562 322 596 q 296 504 322 530 q 238 478 271 478 q 180 501 205 478 q 155 559 155 525 l 159 593 q 189 632 168 618 q 238 646 210 646 "},"Χ":{"x_min":-95.828125,"x_max":784.71875,"ha":699,"o":"m 154 287 l 301 465 l 183 712 l 125 836 l 70 932 l 148 926 q 200 929 182 926 q 229 931 219 931 q 269 824 245 881 q 309 729 293 766 l 381 561 l 494 718 q 641 931 572 820 l 704 926 q 756 929 737 926 q 784 931 775 931 q 675 820 725 875 q 559 690 625 765 l 408 506 l 547 201 q 645 0 593 98 l 586 5 l 485 0 q 455 92 468 55 q 417 187 442 129 l 328 403 l 177 197 q 119 115 147 156 q 44 0 91 73 l -13 5 q -45 4 -34 5 q -95 0 -56 4 q 15 122 -22 79 q 154 287 52 166 "},"*":{"x_min":126,"x_max":627,"ha":675,"o":"m 343 666 q 162 573 249 627 q 149 627 158 600 q 126 676 140 654 q 327 713 234 688 q 251 765 288 743 q 153 822 214 788 q 223 904 194 854 q 276 836 246 873 q 357 750 306 800 q 367 851 364 797 q 370 956 370 904 q 412 940 381 948 q 473 933 443 933 q 434 837 451 885 q 407 743 416 788 q 486 775 454 758 q 592 834 519 793 q 627 730 592 783 q 517 715 563 723 q 423 693 471 708 q 505 636 459 665 q 597 583 551 606 q 558 546 584 576 q 523 501 531 516 q 391 658 457 591 q 382 601 385 629 q 380 540 380 573 q 380 495 380 518 q 380 452 380 473 q 341 468 352 465 q 310 472 329 472 l 277 472 q 308 558 292 510 q 343 666 324 606 "},"°":{"x_min":254,"x_max":586,"ha":683,"o":"m 435 1059 q 541 1020 497 1059 q 586 923 586 982 q 529 788 586 845 q 395 731 473 731 q 296 771 338 731 q 254 870 254 812 q 307 1002 254 946 q 435 1059 360 1059 m 398 774 q 484 818 451 774 q 518 918 518 863 q 496 989 518 961 q 433 1017 475 1017 q 349 967 377 1017 q 321 859 321 918 q 344 798 325 822 q 398 774 364 774 "},"V":{"x_min":47.609375,"x_max":835.109375,"ha":740,"o":"m 47 932 q 90 929 58 932 q 125 926 122 926 q 167 929 137 926 q 199 932 197 932 q 224 737 210 830 q 260 504 237 643 l 321 161 l 519 533 q 623 735 578 641 q 708 932 668 829 l 765 926 q 803 928 782 926 q 835 932 824 930 l 693 691 l 546 433 q 428 214 477 306 q 320 0 379 122 l 285 5 q 249 5 267 5 q 225 0 235 1 q 186 298 211 152 q 131 575 161 443 q 47 932 101 708 "},"Ξ":{"x_min":-50,"x_max":852.78125,"ha":826,"o":"m 493 924 q 673 928 554 924 q 852 932 793 932 q 836 811 836 871 q 658 815 777 811 q 476 820 538 820 q 297 815 416 820 q 118 811 177 811 q 131 932 131 868 q 312 928 191 932 q 493 924 433 924 m 425 533 q 546 538 456 533 q 680 544 636 544 q 662 462 662 500 l 661 447 l 662 422 q 545 426 623 422 q 437 430 466 430 q 302 426 406 430 q 151 422 197 422 q 169 544 169 487 q 290 538 201 544 q 425 533 380 533 m 343 119 q 531 123 405 119 q 720 127 658 127 q 709 59 712 87 q 705 0 705 31 q 516 3 643 0 q 326 8 390 8 q 138 3 263 8 q -50 0 13 0 q -40 52 -44 20 q -36 109 -36 84 l -36 127 q 152 123 26 127 q 343 119 279 119 "}," ":{"x_min":0,"x_max":0,"ha":375},"Ϋ":{"x_min":30,"x_max":778.609375,"ha":668,"o":"m 255 383 q 151 640 207 504 q 30 931 95 776 l 106 927 l 185 931 q 230 780 207 847 q 352 450 253 714 l 502 674 q 577 801 538 734 q 649 931 616 868 l 706 927 l 778 931 l 670 794 l 576 663 l 382 388 l 350 234 q 317 0 328 119 q 276 4 299 1 q 241 6 253 6 q 200 4 216 6 q 166 0 184 2 q 204 147 186 69 q 255 383 221 224 m 349 1204 q 376 1199 364 1204 q 395 1185 388 1194 q 406 1174 402 1177 q 419 1129 419 1152 q 412 1097 419 1108 q 392 1073 405 1085 q 348 1061 380 1061 q 297 1082 319 1061 q 276 1131 276 1104 q 298 1183 276 1162 q 349 1204 320 1204 m 583 1204 q 626 1189 615 1204 q 644 1167 638 1174 q 654 1130 654 1148 q 647 1101 654 1112 q 627 1075 641 1090 q 583 1061 613 1061 q 532 1082 554 1061 q 511 1131 511 1104 q 531 1183 511 1162 q 583 1204 552 1204 "},"0":{"x_min":29,"x_max":705,"ha":749,"o":"m 431 910 q 638 814 571 910 q 705 573 705 719 q 604 170 705 358 q 308 -18 503 -18 q 94 75 160 -18 q 29 325 29 169 q 33 406 29 364 q 60 554 38 448 q 181 784 83 659 q 431 910 278 910 m 146 266 q 182 101 146 170 q 304 33 218 33 q 470 137 408 33 q 558 382 531 241 q 586 627 586 524 q 549 790 586 721 q 429 859 513 859 q 241 725 288 859 q 175 493 194 592 q 151 355 157 393 q 146 266 146 316 "},"@":{"x_min":78,"x_max":1288,"ha":1365,"o":"m 905 639 l 970 639 l 876 266 l 863 205 q 885 156 863 171 q 942 142 907 142 q 1137 263 1061 142 q 1213 513 1213 385 q 1069 803 1213 695 q 736 911 925 911 q 326 755 496 911 q 156 362 156 600 q 303 3 156 137 q 679 -130 451 -130 q 903 -97 789 -130 q 1105 -6 1018 -65 l 1130 -43 q 923 -148 1034 -111 q 693 -186 811 -186 q 258 -42 439 -186 q 78 351 78 101 q 273 793 78 615 q 737 971 469 971 q 1120 844 953 971 q 1288 507 1288 717 q 1186 214 1288 346 q 930 82 1085 82 q 836 103 879 82 q 794 170 794 124 l 794 204 q 709 115 763 148 q 596 82 656 82 q 439 139 493 82 q 386 301 386 197 q 471 552 386 440 q 691 665 557 665 q 797 638 753 665 q 863 556 840 612 l 905 639 m 849 477 q 797 571 835 534 q 701 608 758 608 q 529 510 592 608 q 467 297 467 412 q 503 184 467 230 q 606 139 540 139 q 733 188 679 139 q 807 312 786 237 l 849 477 "},"Ί":{"x_min":-39,"x_max":598.609375,"ha":621,"o":"m 408 0 l 336 5 q 284 2 302 5 q 255 0 265 0 q 372 482 322 248 q 447 931 422 716 q 483 927 466 929 q 523 926 500 926 q 572 929 554 926 q 598 931 590 931 q 486 477 533 712 q 408 0 438 241 m -39 744 l 156 941 q 193 970 174 959 q 231 982 212 982 q 269 966 252 982 q 286 929 286 951 q 266 897 286 918 q 236 870 247 876 l 19 744 l -39 744 "},"ö":{"x_min":9,"x_max":697,"ha":761,"o":"m 370 669 q 605 596 514 669 q 697 383 697 524 q 591 105 697 225 q 332 -15 485 -15 q 98 58 188 -15 q 9 274 9 132 q 18 348 9 302 q 54 464 28 394 q 170 601 81 534 q 370 669 259 669 m 341 924 q 392 903 367 924 q 404 884 396 897 q 413 851 413 871 q 404 816 413 828 q 382 792 396 804 q 342 781 368 781 q 290 802 311 781 q 269 853 269 824 q 291 903 271 883 q 341 924 311 924 m 575 924 q 626 903 603 924 q 642 880 635 893 q 649 851 649 868 q 643 822 649 836 q 620 796 635 811 q 577 781 606 781 q 526 802 547 781 q 505 853 505 824 q 525 903 505 882 q 575 924 546 924 m 134 234 q 177 94 134 152 q 302 36 221 36 q 500 157 432 36 q 569 421 569 279 q 523 561 569 504 q 395 618 477 618 q 245 548 306 618 q 159 393 185 479 q 134 234 134 307 "},"i":{"x_min":8,"x_max":300,"ha":335,"o":"m 128 656 q 201 648 166 648 q 271 655 238 648 q 185 311 217 474 q 153 0 153 148 q 117 4 138 1 q 83 6 95 6 q 39 4 58 6 q 8 0 20 1 q 94 348 60 180 q 128 656 128 517 m 234 963 q 280 943 261 963 q 300 895 300 924 q 281 847 300 867 q 234 827 262 827 q 186 846 205 827 q 167 893 167 865 q 186 942 167 921 q 234 963 205 963 "},"Β":{"x_min":12,"x_max":718,"ha":760,"o":"m 202 933 l 303 927 q 390 930 328 927 q 455 933 451 933 q 640 887 562 933 q 718 744 718 842 q 639 577 718 634 q 438 498 560 519 q 611 439 544 488 q 679 291 679 390 q 572 79 679 158 q 328 0 466 0 l 130 4 l 12 4 q 119 442 71 203 q 202 933 166 682 m 593 727 q 547 844 593 801 q 427 887 501 887 q 377 884 405 887 q 325 878 349 881 q 285 708 307 812 q 248 521 263 605 q 493 561 394 521 q 593 727 593 601 m 259 55 q 460 114 373 55 q 548 282 548 174 q 486 420 548 373 q 328 468 424 468 l 238 468 q 193 253 211 347 q 163 60 175 160 q 223 56 203 57 q 259 55 242 55 "},"υ":{"x_min":41,"x_max":699,"ha":774,"o":"m 699 433 q 582 121 699 257 q 292 -14 465 -14 q 113 42 186 -14 q 41 204 41 99 q 79 459 41 305 q 124 655 117 613 q 192 650 156 650 q 230 652 208 650 q 264 655 252 654 q 195 406 231 538 q 160 188 160 274 q 194 80 160 123 q 294 37 229 37 q 495 158 426 37 q 564 423 564 280 q 549 535 564 477 q 510 650 535 593 l 546 648 q 588 651 568 648 q 646 663 608 654 q 699 433 699 553 "},"]":{"x_min":-46,"x_max":355,"ha":372,"o":"m 199 896 l 151 896 l 159 943 l 257 943 l 355 943 q 292 645 331 834 q 207 226 253 456 q 137 -136 162 -4 l 45 -136 l -46 -136 l -37 -85 l 17 -89 l 49 -85 q 105 177 72 16 q 183 569 138 338 q 247 893 228 800 l 199 896 "},"m":{"x_min":4,"x_max":1100,"ha":1197,"o":"m 533 469 q 503 556 533 523 q 420 589 473 589 q 241 491 299 589 q 165 255 183 394 q 134 0 147 116 q 97 3 120 0 q 70 6 74 6 q 31 3 55 6 q 4 0 6 0 q 89 340 54 160 q 124 655 124 519 l 183 647 q 251 655 217 647 q 215 523 226 583 q 331 631 267 594 q 474 669 395 669 q 648 524 627 669 q 769 629 701 590 q 915 669 837 669 q 1045 623 991 669 q 1100 501 1100 577 q 1097 459 1100 485 q 1091 420 1094 432 l 1040 138 l 1019 0 q 956 8 987 3 q 923 3 945 8 q 888 0 901 0 q 949 244 924 119 q 975 469 975 369 q 949 557 975 526 q 862 589 923 589 q 683 490 742 589 q 601 234 624 391 q 577 0 588 116 q 545 4 567 0 q 512 8 523 8 q 479 4 499 8 q 447 0 459 1 q 508 245 483 120 q 533 469 533 370 "},"χ":{"x_min":-104.171875,"x_max":694.453125,"ha":714,"o":"m 456 425 q 576 655 520 529 q 634 650 599 650 q 673 650 654 650 q 694 655 688 654 q 584 504 636 584 q 458 302 533 425 l 381 181 l 427 27 q 562 -370 491 -186 l 511 -369 q 461 -372 494 -369 q 411 -375 427 -375 l 286 82 l 177 -92 q 92 -235 128 -170 q 29 -375 57 -299 l -55 -369 l -104 -375 q 131 -37 20 -209 l 263 161 l 212 344 q 145 539 173 491 q 72 587 118 587 l 25 583 l 25 636 q 80 661 55 653 q 137 669 105 669 q 256 612 229 669 q 323 408 284 555 l 360 264 l 456 425 "},"8":{"x_min":26,"x_max":687,"ha":749,"o":"m 159 686 q 247 850 159 790 q 443 911 335 911 q 612 865 538 911 q 687 730 687 819 q 624 583 687 641 q 468 503 562 525 q 603 431 550 493 q 657 287 657 369 q 555 67 657 153 q 315 -18 454 -18 q 110 45 195 -18 q 26 223 26 108 q 106 412 26 337 q 305 510 187 487 q 199 573 239 526 q 159 686 159 619 m 270 675 q 306 567 270 610 q 407 524 342 524 q 525 582 481 524 q 569 718 569 640 q 533 820 569 780 q 435 860 498 860 q 331 817 375 860 q 276 714 288 775 q 270 675 272 701 m 152 211 q 195 83 152 133 q 314 33 238 33 q 476 117 418 33 q 535 311 535 202 q 490 428 535 383 q 374 473 445 473 q 234 415 295 473 q 163 303 174 357 q 152 211 152 248 "},"ί":{"x_min":8,"x_max":484.390625,"ha":335,"o":"m 128 656 q 201 648 166 648 q 271 655 238 648 q 185 311 217 474 q 153 0 153 148 q 117 3 134 1 q 77 5 99 5 l 8 0 q 70 230 45 130 q 112 442 95 330 q 128 656 128 554 m 161 745 l 355 941 q 394 970 374 959 q 431 982 413 982 q 468 966 452 982 q 484 929 484 950 q 465 896 484 916 q 434 871 446 876 l 219 745 l 161 745 "},"Ζ":{"x_min":-26.390625,"x_max":815.28125,"ha":785,"o":"m -26 24 q 311 448 158 251 q 623 865 465 645 l 454 862 q 308 855 379 862 q 140 839 237 849 q 152 879 148 862 q 159 932 155 896 q 315 929 205 932 q 433 926 425 926 l 540 926 l 815 932 l 815 915 q 609 651 695 763 q 411 394 522 538 q 168 72 301 250 l 330 75 q 500 80 423 75 q 745 101 577 85 q 728 56 736 84 q 718 0 720 27 q 486 4 640 0 q 254 8 331 8 q 118 7 183 8 q -26 0 54 6 l -26 24 "},"R":{"x_min":14,"x_max":745,"ha":758,"o":"m 204 932 l 305 928 l 461 932 q 659 881 574 932 q 745 726 745 831 q 651 536 745 598 q 414 457 558 475 q 707 0 561 209 l 640 4 q 594 1 619 4 q 544 -3 569 -1 q 385 267 470 127 l 273 452 l 240 452 l 210 309 q 183 177 206 284 q 161 0 161 70 q 118 4 136 2 q 87 6 99 6 q 45 3 72 6 q 14 0 19 0 q 123 445 77 218 q 204 932 168 673 m 614 716 q 556 836 614 798 q 410 875 498 875 l 334 869 q 288 689 310 787 q 249 501 266 591 q 510 542 406 501 q 614 716 614 584 "},"×":{"x_min":202.921875,"x_max":939,"ha":1139,"o":"m 890 775 l 939 729 l 617 408 l 938 86 l 890 38 l 569 359 l 248 38 l 202 86 l 524 407 l 202 729 l 248 775 l 569 453 l 890 775 "},"o":{"x_min":11,"x_max":699,"ha":761,"o":"m 372 669 q 607 596 516 669 q 699 380 699 523 q 591 106 699 226 q 333 -14 484 -14 q 100 58 190 -14 q 11 271 11 130 q 18 346 11 309 q 54 459 26 384 q 170 601 83 534 q 372 669 258 669 m 135 235 q 177 93 135 149 q 303 37 219 37 q 501 159 432 37 q 570 421 570 282 q 523 560 570 502 q 394 618 476 618 q 244 547 305 618 q 158 380 183 477 q 135 235 135 307 "},"5":{"x_min":4.5625,"x_max":672.609375,"ha":749,"o":"m 376 551 q 545 486 476 551 q 614 322 614 421 q 498 79 614 176 q 233 -18 382 -18 q 121 -3 178 -18 q 4 37 64 11 q 40 160 19 102 l 50 157 q 115 69 79 100 q 208 38 151 38 q 398 113 322 38 q 474 301 474 189 q 430 435 474 380 q 308 490 386 490 q 239 474 278 490 q 167 434 200 458 l 140 452 q 183 663 162 545 q 218 888 204 782 l 435 888 l 672 888 q 660 830 664 862 q 655 771 655 798 q 511 776 607 771 q 369 782 415 782 l 276 782 l 222 517 q 376 551 293 551 "},"7":{"x_min":79.171875,"x_max":751.390625,"ha":749,"o":"m 615 777 l 309 772 l 138 764 q 158 806 152 789 q 163 846 163 823 l 163 888 l 427 885 l 751 885 l 751 850 q 702 781 716 802 q 665 726 687 761 l 461 412 q 333 203 390 304 q 227 0 276 103 q 190 4 211 0 q 152 8 169 8 q 116 4 136 8 q 79 0 97 0 q 256 222 175 106 q 435 491 338 339 q 615 777 531 643 "},"K":{"x_min":13.890625,"x_max":836.109375,"ha":747,"o":"m 270 500 q 346 568 308 530 q 406 626 384 605 l 523 746 q 604 832 565 788 q 687 932 643 876 l 752 926 l 836 932 q 768 877 798 901 q 688 808 738 852 l 587 713 l 372 508 l 546 247 l 649 87 l 701 18 l 701 0 q 655 3 683 0 q 624 6 627 6 q 582 4 598 6 q 546 0 566 2 q 444 171 492 92 q 350 320 396 250 l 259 453 l 242 454 l 212 311 q 162 0 184 163 q 125 4 148 1 q 90 6 101 6 q 46 3 73 6 q 13 0 19 0 q 129 463 81 234 q 204 932 176 693 l 273 926 q 318 929 287 926 q 351 932 350 932 q 286 665 312 811 l 252 504 l 270 500 "},",":{"x_min":-68.0625,"x_max":213.890625,"ha":375,"o":"m 76 91 q 110 148 95 131 q 158 165 125 165 q 199 155 184 165 q 213 120 213 145 q 209 94 213 105 q 181 44 205 84 l -38 -240 l -68 -225 l 76 91 "},"d":{"x_min":16,"x_max":801.78125,"ha":765,"o":"m 254 -14 q 79 65 143 -14 q 16 259 16 145 q 115 544 16 419 q 372 669 215 669 q 492 628 436 669 q 572 527 549 588 l 604 678 q 635 841 615 733 q 665 1025 654 950 q 706 1018 689 1020 q 733 1015 724 1015 q 770 1019 750 1015 q 801 1025 790 1023 q 676 528 728 783 q 586 0 624 273 l 528 2 l 464 0 l 492 94 q 377 13 431 40 q 254 -14 324 -14 m 144 239 q 178 105 144 160 q 291 51 213 51 q 460 139 400 51 q 528 294 519 228 q 539 377 537 360 q 540 404 540 395 q 539 448 540 439 q 536 463 539 457 q 485 556 526 521 q 383 591 443 591 q 234 516 292 591 q 163 378 175 441 q 147 284 150 316 q 144 239 144 252 "},"¨":{"x_min":106.9375,"x_max":652.78125,"ha":606,"o":"m 244 617 q 206 557 223 571 q 162 544 188 544 l 134 548 q 114 558 122 552 q 106 588 106 564 q 117 625 106 605 q 137 663 127 645 l 361 948 l 388 935 l 244 617 m 509 617 l 493 581 q 468 552 483 560 q 426 544 452 544 q 385 554 400 544 q 370 589 370 564 q 381 630 370 612 q 404 663 391 648 l 625 948 l 652 935 l 509 617 "},"E":{"x_min":13.890625,"x_max":652.78125,"ha":647,"o":"m 204 932 l 438 928 l 652 932 q 631 847 631 887 q 552 857 591 854 q 468 860 513 860 l 327 860 q 301 759 315 822 q 280 664 287 696 l 252 531 l 370 531 q 474 532 440 531 q 572 542 508 533 q 555 452 555 501 q 470 461 518 457 q 381 466 422 466 l 240 466 l 208 311 q 186 199 197 260 q 166 75 176 139 q 384 78 309 75 q 523 90 458 81 q 513 57 516 72 q 509 27 509 42 l 511 0 l 200 8 q 13 0 105 8 q 122 451 65 165 q 204 932 180 737 "},"Y":{"x_min":29.5625,"x_max":776.78125,"ha":667,"o":"m 254 380 q 174 584 197 526 q 110 741 151 641 q 29 932 68 840 q 71 927 62 927 q 105 926 80 926 q 149 929 118 926 q 183 931 180 931 q 230 772 211 830 q 353 450 250 715 l 500 674 q 576 800 535 730 q 647 931 617 869 l 705 926 q 751 929 735 926 q 776 931 767 931 l 669 794 l 577 663 l 380 387 l 350 236 q 317 0 328 117 q 276 4 299 1 q 240 6 253 6 q 199 4 215 6 q 164 0 183 2 q 216 199 193 90 q 254 380 239 308 "},"\"":{"x_min":65,"x_max":315,"ha":381,"o":"m 132 588 l 65 588 l 65 957 l 132 957 l 132 588 m 315 588 l 247 588 l 247 957 l 315 957 l 315 588 "},"ê":{"x_min":9,"x_max":616,"ha":664,"o":"m 142 236 q 192 100 142 153 q 322 47 242 47 q 433 76 376 47 q 538 153 490 106 l 553 139 q 536 93 545 118 q 524 50 528 69 q 415 0 471 16 q 302 -18 360 -18 q 89 61 170 -18 q 9 273 9 140 q 114 550 9 431 q 377 669 220 669 q 547 594 479 669 q 616 417 616 519 q 613 369 616 403 q 610 334 610 335 l 379 336 l 147 336 q 142 236 142 292 m 527 743 l 417 886 l 246 743 l 183 743 l 388 976 l 466 976 l 576 743 l 527 743 m 324 389 l 488 389 q 495 452 495 426 q 460 567 495 516 q 364 618 426 618 q 232 550 282 618 q 159 389 182 483 l 324 389 "},"δ":{"x_min":12,"x_max":673.109375,"ha":703,"o":"m 440 968 q 333 931 378 968 q 288 833 288 895 q 374 674 288 747 q 543 536 460 602 q 633 327 633 445 q 544 85 633 184 q 313 -14 455 -14 q 97 68 182 -14 q 12 281 12 151 q 99 513 12 417 q 323 624 186 609 q 213 717 259 665 q 162 830 167 769 q 237 971 162 920 q 407 1022 313 1022 q 593 1000 513 1022 q 673 902 673 979 q 666 876 673 893 q 657 852 660 859 q 555 938 604 908 q 440 968 506 968 m 356 577 q 200 469 256 577 q 144 252 144 360 q 180 99 144 166 q 295 33 217 33 q 449 135 398 33 q 500 352 500 238 q 479 478 500 417 q 422 558 458 538 q 356 577 385 577 "},"έ":{"x_min":32,"x_max":658.390625,"ha":642,"o":"m 533 512 q 459 586 502 558 q 367 615 416 615 q 277 582 315 615 q 240 497 240 549 q 286 405 240 430 q 415 369 333 381 q 408 329 408 351 l 408 309 q 361 315 398 310 q 317 321 324 321 q 209 283 253 321 q 165 182 165 246 q 215 78 165 115 q 334 42 265 42 q 442 66 394 42 q 544 139 490 91 q 532 41 532 93 q 319 -15 434 -15 q 120 32 208 -15 q 32 182 32 80 q 81 302 32 255 q 207 367 130 348 q 141 427 166 391 q 115 508 115 463 q 183 628 115 587 q 337 669 251 669 q 452 650 394 669 q 559 598 511 631 q 544 560 550 578 q 533 512 538 541 m 334 744 l 529 941 q 566 970 547 959 q 604 982 584 982 q 641 966 625 982 q 658 929 658 951 q 638 897 658 917 q 607 870 619 876 l 392 744 l 334 744 "},"ω":{"x_min":12,"x_max":1090,"ha":1153,"o":"m 1090 384 q 985 102 1090 219 q 716 -15 880 -15 q 591 10 644 -15 q 500 94 539 36 q 405 13 459 41 q 285 -15 350 -15 q 89 73 166 -15 q 12 284 12 162 q 64 489 12 394 q 212 661 117 583 q 266 647 238 653 q 332 641 293 641 q 191 461 245 562 q 137 248 137 359 q 177 101 137 167 q 296 36 218 36 q 480 280 428 36 q 510 474 503 429 l 538 655 q 580 650 557 651 q 631 648 602 648 l 680 652 q 610 394 632 487 q 588 205 588 302 q 621 81 588 127 q 728 36 655 36 q 898 148 842 36 q 955 388 955 261 q 933 526 955 462 q 864 645 911 590 q 925 649 898 645 q 998 661 953 652 q 1067 534 1044 607 q 1090 384 1090 462 "},"´":{"x_min":108.71875,"x_max":393.4375,"ha":375,"o":"m 254 876 q 285 929 265 910 q 336 949 304 949 q 378 939 362 949 q 393 903 393 929 q 384 867 393 885 q 358 829 375 850 l 137 543 l 108 556 l 254 876 "},"±":{"x_min":169,"x_max":969,"ha":1139,"o":"m 604 547 l 969 547 l 969 482 l 604 482 l 604 249 l 536 249 l 536 482 l 169 482 l 169 547 l 536 547 l 536 781 l 604 781 l 604 547 m 969 33 l 169 33 l 169 100 l 969 100 l 969 33 "},"|":{"x_min":304,"x_max":378,"ha":683,"o":"m 378 448 l 304 448 l 304 956 l 378 956 l 378 448 m 378 -235 l 304 -235 l 304 271 l 378 270 l 378 -235 "},"ϋ":{"x_min":41,"x_max":699,"ha":774,"o":"m 699 433 q 582 121 699 256 q 292 -14 465 -14 q 113 42 186 -14 q 41 204 41 99 q 79 459 41 305 q 124 655 117 613 q 191 651 155 651 q 230 652 208 651 q 264 655 251 654 q 195 406 230 538 q 160 188 160 274 q 194 80 160 123 q 294 37 229 37 q 495 158 426 37 q 564 423 564 280 q 549 535 564 477 q 510 650 535 593 l 546 651 q 588 653 568 651 q 646 662 608 655 q 699 433 699 552 m 305 924 q 354 902 334 924 q 375 850 375 881 q 355 800 375 821 q 305 780 336 780 q 253 800 274 780 q 233 853 233 821 q 253 903 233 883 q 305 924 273 924 m 538 924 q 588 902 568 924 q 609 850 609 881 q 590 800 609 820 q 539 780 571 780 q 488 801 510 780 q 467 853 467 822 q 487 903 467 883 q 538 924 507 924 "},"§":{"x_min":7,"x_max":605.625,"ha":675,"o":"m 41 43 l 58 41 q 141 -59 93 -22 q 257 -97 190 -97 q 374 -56 326 -97 q 423 51 423 -16 q 336 191 423 129 q 175 294 256 243 q 88 453 88 362 q 120 554 88 510 q 208 636 152 598 q 188 681 195 660 q 182 728 182 703 q 254 883 182 817 q 420 949 327 949 q 522 931 472 949 q 605 882 572 914 q 590 856 598 871 q 563 802 582 841 l 545 802 q 482 868 517 844 q 404 893 448 893 q 307 856 348 893 q 266 763 266 819 q 348 640 266 694 q 512 537 431 585 q 599 380 599 470 q 568 284 599 330 q 492 202 537 238 q 520 97 520 158 q 441 -84 520 -8 q 257 -160 361 -160 q 7 -71 118 -160 q 33 -11 25 -36 q 41 43 41 13 m 517 340 q 418 468 517 395 q 238 602 320 541 q 189 560 208 586 q 170 502 170 534 q 272 364 170 436 q 461 235 374 293 q 500 284 483 255 q 517 340 517 312 "},"b":{"x_min":-11,"x_max":689,"ha":765,"o":"m 172 879 l 198 1025 q 232 1018 214 1022 q 265 1015 251 1015 q 301 1019 282 1015 q 332 1025 320 1023 q 262 750 298 913 q 220 558 226 586 q 325 640 266 612 q 452 669 383 669 q 626 589 564 669 q 689 392 689 509 q 589 107 689 229 q 330 -15 490 -15 q 213 7 266 -15 q 111 76 161 30 q 35 0 70 46 l -11 0 q 56 281 23 129 q 114 563 89 433 q 172 879 139 693 m 561 409 q 524 544 561 488 q 412 600 488 600 q 222 482 284 600 q 161 223 161 365 q 201 95 161 148 q 317 43 242 43 q 467 119 409 43 q 540 267 526 195 q 557 360 554 338 q 561 409 561 381 "},"q":{"x_min":23,"x_max":716.0625,"ha":765,"o":"m 267 -14 q 88 65 154 -14 q 23 262 23 145 q 125 546 23 423 q 385 669 227 669 q 500 633 452 669 q 577 531 549 597 q 590 613 588 597 q 592 654 592 629 q 620 650 603 651 q 652 648 636 648 q 686 650 667 648 q 716 654 704 652 q 654 393 679 515 q 538 -225 629 271 l 513 -373 q 483 -367 496 -369 q 446 -365 470 -365 q 409 -367 421 -365 q 379 -373 396 -369 q 438 -152 413 -260 l 477 30 l 492 95 q 386 15 441 44 q 267 -14 332 -14 m 149 241 q 185 109 149 165 q 294 53 221 53 q 481 166 418 53 q 545 413 545 279 q 504 542 545 491 q 386 594 463 594 q 237 519 294 594 q 164 367 179 444 q 149 241 149 291 "},"Ω":{"x_min":-39,"x_max":1063.78125,"ha":1103,"o":"m 1063 92 q 1044 0 1051 55 q 937 3 1008 0 q 830 8 866 8 q 723 3 795 8 q 615 0 651 0 l 631 53 q 842 248 766 116 q 918 537 918 380 q 839 791 918 695 q 605 888 761 888 q 299 737 416 888 q 183 390 183 586 q 234 183 183 274 q 389 53 286 92 l 375 0 l 168 8 q 49 4 133 8 q -39 0 -33 0 q -26 39 -30 20 q -18 92 -22 58 q 83 86 37 87 q 208 86 130 86 q 82 231 121 165 q 44 395 44 297 q 211 791 44 629 q 615 953 378 953 q 933 845 807 953 q 1060 548 1060 737 q 1004 301 1060 407 q 836 86 948 195 q 945 89 863 86 q 1063 92 1026 92 "},"ύ":{"x_min":41,"x_max":699,"ha":774,"o":"m 699 433 q 582 121 699 256 q 292 -14 465 -14 q 113 42 186 -14 q 41 204 41 99 q 79 459 41 305 q 124 655 117 613 q 192 650 156 650 q 230 652 208 650 q 264 655 252 654 q 195 406 231 538 q 160 188 160 274 q 194 80 160 123 q 294 37 229 37 q 495 158 426 37 q 564 423 564 280 q 549 535 564 477 q 510 650 535 593 l 546 648 q 588 651 568 648 q 646 662 608 654 q 699 433 699 552 m 376 744 l 570 941 q 607 970 588 959 q 645 982 625 982 q 682 966 665 982 q 699 929 699 951 q 679 897 699 918 q 647 870 660 876 l 434 744 l 376 744 "},"Ö":{"x_min":43,"x_max":1061,"ha":1103,"o":"m 616 953 q 932 847 804 953 q 1061 555 1061 741 q 893 149 1061 316 q 488 -18 726 -18 q 167 89 292 -18 q 43 389 43 197 q 70 574 43 444 q 254 828 97 704 q 616 953 411 953 m 555 1204 q 604 1181 582 1204 q 626 1129 626 1158 q 603 1080 626 1099 q 553 1061 581 1061 q 503 1081 524 1061 q 483 1131 483 1102 q 503 1183 483 1162 q 555 1204 524 1204 m 791 1204 q 840 1181 820 1204 q 861 1129 861 1158 q 839 1080 861 1099 q 788 1061 817 1061 q 738 1081 759 1061 q 718 1131 718 1102 q 739 1182 718 1160 q 791 1204 761 1204 m 608 888 q 300 736 415 888 q 186 387 186 585 q 266 139 186 236 q 495 43 347 43 q 802 188 685 43 q 919 529 919 334 q 909 651 919 596 q 866 765 899 707 q 764 855 834 822 q 608 888 694 888 "},"z":{"x_min":-33.71875,"x_max":631.5625,"ha":633,"o":"m 312 423 l 448 589 q 269 587 337 589 q 112 578 201 586 l 116 628 l 114 656 q 195 649 176 650 q 238 649 214 649 q 468 652 328 649 q 631 655 607 655 l 631 631 q 462 441 517 504 q 320 274 406 377 q 155 69 234 170 q 350 73 259 69 q 544 89 441 77 q 530 44 537 68 q 521 0 523 20 q 381 4 474 0 q 241 8 288 8 q -33 -4 110 8 l -33 31 q 312 423 139 212 "},"™":{"x_min":176,"x_max":918,"ha":1139,"o":"m 464 931 l 347 931 l 347 616 l 294 616 l 294 931 l 176 931 l 176 971 l 464 971 l 464 931 m 735 688 l 840 970 l 918 971 l 918 616 l 871 616 l 871 928 l 752 616 l 716 616 l 594 931 l 594 616 l 548 616 l 548 971 l 625 971 l 735 688 "},"ή":{"x_min":4,"x_max":672.046875,"ha":765,"o":"m 70 6 q 31 3 55 6 q 4 0 6 0 q 90 339 55 166 q 124 655 124 512 l 183 647 q 251 655 217 647 q 216 523 228 588 q 332 629 266 590 q 475 669 398 669 q 612 623 557 669 q 667 497 667 577 q 651 376 667 437 l 558 -111 q 534 -253 547 -173 q 515 -372 520 -333 q 480 -367 495 -369 q 451 -365 465 -365 q 418 -367 437 -365 q 383 -372 399 -370 q 461 -62 427 -200 q 519 217 494 75 q 545 460 545 359 q 514 551 545 515 q 428 588 483 588 q 318 556 384 588 q 211 431 252 524 q 158 221 170 339 q 135 0 145 104 q 100 3 125 0 q 70 6 76 6 m 347 744 l 545 941 q 581 971 562 959 q 620 982 601 982 q 656 966 640 982 q 672 929 672 950 q 652 897 672 918 q 622 870 633 876 l 407 744 l 347 744 "},"Θ":{"x_min":43,"x_max":1060,"ha":1103,"o":"m 615 953 q 933 845 807 953 q 1060 548 1060 737 q 895 143 1060 305 q 488 -18 730 -18 q 168 88 294 -18 q 43 387 43 195 q 70 572 43 440 q 254 828 97 704 q 615 953 411 953 m 606 888 q 301 735 417 888 q 185 386 185 583 q 266 139 185 236 q 496 43 348 43 q 802 189 685 43 q 920 529 920 336 q 910 651 920 596 q 867 763 900 705 q 763 854 835 821 q 606 888 692 888 m 550 419 l 497 419 l 290 410 q 300 458 297 440 q 304 502 304 477 q 442 497 354 502 q 556 493 531 493 l 608 493 l 818 502 q 806 452 809 471 q 803 410 803 433 q 676 414 761 410 q 550 419 591 419 "},"®":{"x_min":80,"x_max":1056,"ha":1139,"o":"m 814 904 q 991 727 926 840 q 1056 481 1056 613 q 910 137 1056 281 q 567 -6 765 -6 q 224 138 368 -6 q 80 481 80 283 q 224 826 80 681 q 568 971 368 971 q 814 904 697 971 m 568 918 q 262 788 391 918 q 133 481 133 659 q 262 175 133 306 q 565 45 391 45 q 872 174 742 45 q 1003 478 1003 303 q 946 697 1003 595 q 786 858 889 799 q 568 918 683 918 m 813 620 q 775 522 813 563 q 681 468 737 480 l 808 209 l 712 209 l 592 456 l 462 457 l 462 209 l 377 209 l 377 771 l 581 771 q 745 739 678 771 q 813 620 813 707 m 462 715 l 462 513 l 566 513 q 680 532 634 513 q 727 609 727 551 q 680 693 727 672 q 564 715 634 715 l 462 715 "},"É":{"x_min":14,"x_max":668.171875,"ha":647,"o":"m 202 929 l 440 929 l 652 929 q 630 847 637 894 q 550 858 586 855 q 468 861 514 861 l 327 861 q 304 779 312 813 q 282 664 297 745 l 252 531 l 369 531 q 482 533 451 531 q 570 541 512 535 q 555 451 555 500 q 464 463 500 459 q 383 467 427 467 l 237 467 l 208 312 q 188 203 197 257 q 168 75 179 148 q 384 79 308 75 q 525 90 459 83 q 514 55 516 66 q 511 26 511 44 l 511 0 l 200 8 q 14 0 105 8 q 123 454 66 168 q 202 929 180 739 m 343 1021 l 538 1221 q 579 1254 562 1243 q 616 1265 595 1265 q 652 1246 637 1265 q 668 1207 668 1228 q 655 1178 668 1189 q 618 1151 643 1166 l 403 1021 l 343 1021 "},"~":{"x_min":284,"x_max":1080,"ha":1367,"o":"m 852 652 q 664 750 775 652 q 510 849 553 849 q 395 792 430 849 q 360 652 360 736 l 284 652 q 340 845 284 767 q 510 924 396 924 q 696 824 604 924 q 853 724 788 724 q 968 779 935 724 q 1002 924 1002 835 l 1080 924 q 1023 729 1080 806 q 852 652 967 652 "},"Ε":{"x_min":13.890625,"x_max":652.78125,"ha":647,"o":"m 204 932 l 438 928 l 652 932 q 631 847 631 887 q 552 857 591 854 q 468 860 513 860 l 327 860 q 301 759 315 822 q 280 664 287 696 l 252 531 l 370 531 q 474 532 440 531 q 572 542 508 533 q 555 452 555 501 q 470 461 518 457 q 381 466 422 466 l 240 466 l 208 311 q 186 199 197 260 q 166 75 176 139 q 384 78 309 75 q 523 90 458 81 q 513 57 516 72 q 509 27 509 42 l 511 0 l 200 8 q 13 0 105 8 q 122 451 65 165 q 204 932 180 737 "},"³":{"x_min":1,"x_max":433,"ha":496,"o":"m 24 445 l 35 443 q 84 392 53 408 q 157 377 116 377 q 279 417 227 377 q 331 525 331 457 q 304 595 331 567 q 235 623 278 623 l 174 616 q 182 660 180 634 l 217 660 q 306 691 263 660 q 354 768 348 723 q 330 843 354 815 q 259 871 306 871 q 144 791 177 871 l 134 791 q 110 848 130 819 q 274 903 181 903 q 384 872 335 903 q 433 780 433 841 q 387 692 433 723 q 276 644 342 661 q 374 610 332 639 q 416 526 416 580 q 329 388 416 435 q 142 342 242 342 q 81 346 103 342 q 1 368 59 351 l 24 445 "},"[":{"x_min":-7,"x_max":394.375,"ha":372,"o":"m 150 -90 l 199 -90 l 186 -136 l 90 -136 l -7 -136 q 211 942 106 386 l 302 942 l 394 942 l 384 891 l 327 895 l 295 891 q 236 610 262 733 q 168 272 211 487 q 98 -87 126 57 l 150 -90 "},"L":{"x_min":13.890625,"x_max":544.4375,"ha":600,"o":"m 204 932 q 236 927 220 929 q 276 926 252 926 q 314 928 293 926 q 347 932 336 930 q 240 502 295 764 q 169 75 186 240 q 358 79 270 75 q 544 94 445 83 q 526 27 526 60 l 529 0 l 205 8 q 13 0 109 8 q 131 469 80 226 q 204 932 181 712 "},"σ":{"x_min":11,"x_max":788.78125,"ha":800,"o":"m 774 567 q 706 573 738 572 q 632 575 675 575 q 698 384 698 498 q 592 106 698 226 q 331 -14 486 -14 q 99 58 187 -14 q 11 273 11 130 q 120 548 11 428 q 383 669 229 669 q 482 656 405 669 q 587 643 559 643 q 676 645 647 643 q 788 656 706 647 q 778 621 781 640 q 774 567 774 601 m 136 236 q 179 95 136 153 q 304 37 223 37 q 503 159 434 37 q 572 421 572 281 q 525 561 572 504 q 395 618 478 618 l 358 613 q 192 474 249 590 q 136 236 136 358 "},"ζ":{"x_min":37,"x_max":691.171875,"ha":657,"o":"m 688 946 q 434 773 552 872 q 238 547 316 675 q 161 278 161 420 q 288 149 172 174 q 499 126 394 137 q 611 1 611 102 q 585 -93 611 -47 q 474 -229 560 -138 l 424 -192 q 483 -119 466 -145 q 501 -56 501 -94 q 353 15 501 -5 q 121 73 205 36 q 37 251 37 111 q 94 473 37 364 q 238 677 152 583 q 427 858 324 772 l 535 946 l 402 946 q 292 943 342 946 q 188 931 242 940 q 205 1025 205 974 q 345 1021 259 1025 q 445 1018 431 1018 q 584 1021 496 1018 q 691 1025 673 1025 l 688 946 "},"θ":{"x_min":29,"x_max":705,"ha":749,"o":"m 705 572 q 604 169 705 357 q 308 -18 503 -18 q 95 73 162 -18 q 29 318 29 165 q 131 719 29 529 q 427 910 233 910 l 464 905 q 648 799 591 890 q 705 572 705 708 m 146 257 q 183 100 146 167 q 304 33 220 33 q 475 140 424 33 q 562 422 525 248 l 399 427 l 162 424 q 150 332 154 368 q 146 257 146 296 m 586 632 q 548 790 586 721 q 427 859 510 859 q 259 755 310 859 q 173 483 209 651 l 320 478 q 465 480 364 478 q 573 483 566 483 q 581 558 577 515 q 586 632 586 601 "},"Ο":{"x_min":43,"x_max":1060,"ha":1103,"o":"m 615 953 q 931 847 802 953 q 1060 555 1060 741 q 893 150 1060 318 q 488 -18 726 -18 q 168 88 294 -18 q 43 387 43 195 q 70 572 43 440 q 254 828 97 704 q 615 953 411 953 m 606 888 q 301 735 417 888 q 185 386 185 583 q 266 139 185 236 q 496 43 348 43 q 802 189 685 43 q 920 529 920 336 q 910 651 920 596 q 867 763 900 705 q 763 854 835 821 q 606 888 692 888 "},"Γ":{"x_min":13.890625,"x_max":691.671875,"ha":593,"o":"m 91 5 q 62 4 73 5 q 13 0 51 4 q 126 454 79 222 q 204 932 173 687 q 331 929 251 932 q 429 926 411 926 q 583 929 488 926 q 691 932 677 932 q 669 842 676 890 q 515 858 590 858 l 327 858 q 231 441 286 732 q 162 0 177 149 l 91 5 "}," ":{"x_min":0,"x_max":0,"ha":375},"%":{"x_min":47,"x_max":1010,"ha":1075,"o":"m 488 731 q 414 551 488 627 q 235 475 341 475 q 99 526 152 475 q 47 662 47 577 q 122 837 47 763 q 298 911 197 911 q 422 870 375 911 q 488 752 469 829 l 488 731 m 1010 230 q 936 54 1010 126 q 757 -18 862 -18 q 625 31 677 -18 q 573 161 573 80 q 647 336 573 262 q 824 411 721 411 q 949 368 898 411 q 1010 254 1000 326 l 1010 230 m 202 -124 l 121 -125 l 844 1015 l 924 1015 l 202 -124 m 673 119 q 695 46 673 75 q 762 17 718 17 q 870 96 834 17 q 907 255 907 175 q 888 338 907 305 q 818 372 870 372 q 715 304 751 372 q 673 157 680 236 l 673 119 m 150 627 q 172 549 150 584 q 234 514 194 514 q 345 591 309 514 q 382 753 382 669 q 361 836 382 803 q 293 869 341 869 q 191 801 225 869 q 150 655 156 734 l 150 627 "},"P":{"x_min":13.890625,"x_max":722,"ha":711,"o":"m 204 935 l 284 927 q 378 931 319 927 q 449 935 437 935 q 641 877 560 935 q 722 712 722 819 q 653 533 722 609 q 506 441 585 456 q 360 422 426 426 q 233 418 294 418 q 192 196 213 313 q 161 0 170 78 q 118 4 136 2 q 87 6 99 6 q 45 3 72 6 q 13 0 19 0 q 130 466 81 231 q 204 935 179 702 m 584 700 q 529 829 584 783 q 389 875 475 875 l 333 870 q 244 475 277 670 q 489 521 394 475 q 584 700 584 568 "},"Ώ":{"x_min":-39,"x_max":1230.453125,"ha":1269,"o":"m 1230 92 q 1210 0 1217 55 q 1103 3 1174 0 q 996 8 1033 8 q 890 3 962 8 q 781 0 817 0 l 798 53 q 1008 248 932 116 q 1084 537 1084 380 q 1005 791 1084 695 q 771 888 927 888 q 466 737 583 888 q 350 390 350 586 q 401 183 350 274 q 556 53 453 92 l 542 0 l 334 8 q 216 4 300 8 q 127 0 133 0 q 140 39 136 20 q 148 92 144 58 q 250 86 204 87 q 375 86 297 86 q 249 231 288 165 q 211 395 211 297 q 378 791 211 629 q 781 953 545 953 q 1099 845 973 953 q 1226 548 1226 737 q 1170 301 1226 407 q 1002 86 1115 195 q 1111 89 1030 86 q 1230 92 1192 92 m -39 744 l 156 941 q 193 970 174 959 q 231 982 212 982 q 269 966 252 982 q 286 929 286 951 q 266 897 286 918 q 235 870 247 876 l 19 744 l -39 744 "},"Έ":{"x_min":-39,"x_max":888.78125,"ha":883,"o":"m 440 931 l 674 928 l 888 931 q 867 847 867 887 q 788 857 827 854 q 704 860 749 860 l 563 860 q 537 759 551 822 q 516 664 523 696 l 488 531 l 606 531 q 710 532 676 531 q 808 542 744 533 q 791 452 791 501 q 706 461 754 457 q 617 466 658 466 l 476 466 l 444 311 q 422 199 433 260 q 402 75 412 139 q 620 78 545 75 q 759 90 694 81 q 749 57 752 72 q 745 27 745 42 l 747 0 l 436 8 q 249 0 341 8 q 358 451 301 165 q 440 931 416 737 m -39 744 l 156 941 q 193 970 174 959 q 231 982 212 982 q 269 966 252 982 q 286 929 286 951 q 266 897 286 918 q 235 870 247 876 l 19 744 l -39 744 "},"_":{"x_min":0,"x_max":683.328125,"ha":683,"o":"m 683 -324 l 0 -324 l 0 -256 l 683 -256 l 683 -324 "},"Ϊ":{"x_min":19,"x_max":513,"ha":386,"o":"m 172 0 l 100 5 q 48 2 67 5 q 19 0 28 0 q 97 314 56 138 q 165 632 139 490 q 208 932 192 775 l 286 927 l 360 932 q 172 0 229 472 m 207 1204 q 234 1199 222 1204 q 253 1184 246 1194 q 266 1167 261 1174 q 278 1130 278 1145 q 271 1101 278 1113 q 250 1075 264 1090 q 207 1061 236 1061 q 156 1081 178 1061 q 134 1131 134 1102 q 155 1183 134 1163 q 207 1204 176 1204 m 442 1204 q 469 1199 457 1204 q 489 1184 481 1194 q 503 1167 497 1174 q 513 1130 513 1148 q 506 1101 513 1112 q 486 1075 500 1090 q 442 1061 471 1061 q 391 1081 413 1061 q 369 1131 369 1102 q 390 1183 369 1163 q 442 1204 411 1204 "},"+":{"x_min":169,"x_max":970,"ha":1139,"o":"m 603 439 l 970 439 l 970 375 l 603 375 l 603 0 l 536 0 l 536 375 l 169 375 l 169 439 l 536 439 l 536 814 l 603 814 l 603 439 "},"½":{"x_min":134,"x_max":1110,"ha":1172,"o":"m 302 836 q 211 800 239 812 q 143 763 182 787 q 139 789 143 776 q 134 809 135 802 q 266 855 213 836 q 386 904 319 875 l 399 894 q 340 666 364 773 q 282 391 315 559 l 237 395 l 194 391 q 254 613 227 501 q 302 836 281 725 m 1012 1015 l 254 -124 l 175 -125 l 929 1014 l 1012 1015 m 1070 63 q 1062 18 1062 37 l 1062 0 l 886 3 l 693 3 l 699 30 q 955 232 889 172 q 1022 386 1022 292 q 997 451 1022 425 q 930 478 972 478 q 864 457 893 478 q 823 400 835 436 l 809 400 q 779 444 797 428 q 946 511 849 511 q 1060 475 1010 511 q 1110 377 1110 440 q 985 188 1110 275 q 786 53 860 101 q 942 58 842 53 q 1070 63 1041 63 "},"Ρ":{"x_min":13.890625,"x_max":722,"ha":711,"o":"m 204 935 l 284 927 q 378 931 319 927 q 449 935 437 935 q 641 877 560 935 q 722 712 722 819 q 653 533 722 609 q 506 441 585 456 q 360 422 426 426 q 233 418 294 418 q 192 196 213 313 q 161 0 170 78 q 118 4 136 2 q 87 6 99 6 q 45 3 72 6 q 13 0 19 0 q 130 466 81 231 q 204 935 179 702 m 584 700 q 529 829 584 783 q 389 875 475 875 l 333 870 q 244 475 277 670 q 489 521 394 475 q 584 700 584 568 "},"'":{"x_min":111.109375,"x_max":393.0625,"ha":375,"o":"m 255 876 q 285 928 266 909 q 337 947 304 947 q 378 937 363 947 q 393 902 393 927 q 384 865 393 884 q 361 829 375 847 l 138 543 l 111 556 l 255 876 "},"T":{"x_min":68.0625,"x_max":769.453125,"ha":669,"o":"m 358 857 q 198 854 261 857 q 68 844 136 852 q 77 886 72 853 q 83 932 83 919 q 234 927 133 932 q 372 922 336 922 q 579 927 440 922 q 769 932 718 932 q 758 902 763 918 q 752 874 752 887 l 751 861 l 752 844 q 631 854 704 851 q 494 857 558 857 q 390 409 434 627 q 326 0 345 191 q 289 3 306 1 q 250 5 272 5 q 209 3 230 5 q 175 0 187 1 q 273 404 227 184 q 358 857 319 624 "},"Φ":{"x_min":50,"x_max":1061,"ha":1103,"o":"m 530 -24 q 461 -15 497 -15 q 380 -24 422 -15 l 408 71 q 156 170 263 83 q 50 393 50 257 q 197 741 50 615 q 569 868 345 868 l 581 957 q 620 951 598 954 q 658 948 641 948 q 695 951 673 948 q 731 957 716 954 l 705 862 q 956 761 852 845 q 1061 539 1061 676 q 915 191 1061 315 q 544 67 769 67 l 530 -24 m 919 521 q 857 718 919 636 q 688 800 796 800 q 611 454 642 605 q 552 134 580 303 q 813 249 708 134 q 919 521 919 364 m 193 407 q 254 213 193 293 q 424 134 315 134 q 495 464 463 304 q 558 800 527 625 q 294 686 395 800 q 193 407 193 572 "},"j":{"x_min":-140,"x_max":298,"ha":338,"o":"m 233 963 q 279 944 260 963 q 298 897 298 925 q 278 847 298 868 q 229 827 259 827 q 182 846 201 827 q 163 893 163 865 q 183 942 163 921 q 233 963 204 963 m -140 -335 q -30 -272 -63 -328 q 18 -123 1 -216 l 61 107 q 107 391 83 243 q 132 655 132 540 q 203 648 168 648 q 266 655 237 648 q 216 395 239 526 q 171 109 194 265 q 124 -136 147 -46 q 40 -301 101 -226 q -131 -376 -20 -376 l -140 -335 "},"Σ":{"x_min":-61.109375,"x_max":736.109375,"ha":714,"o":"m 718 836 q 563 851 636 846 q 419 857 490 857 l 269 857 q 336 737 305 792 q 417 600 367 682 l 497 472 q 131 119 295 300 l 355 119 l 661 127 q 643 63 650 95 q 636 0 636 31 q 456 3 577 0 q 277 8 336 8 q 108 3 219 8 q -61 0 -2 0 l -50 48 q 358 453 158 244 q 262 625 294 570 q 180 753 230 681 l 89 891 l 98 932 q 296 929 176 932 q 437 926 417 926 q 613 929 506 926 q 736 932 720 932 q 718 836 718 881 "},"1":{"x_min":153,"x_max":572,"ha":749,"o":"m 419 793 q 268 723 308 743 q 168 665 229 704 q 163 706 166 686 q 153 748 159 727 q 354 825 250 781 q 552 915 458 869 l 572 895 q 387 0 461 459 q 352 4 376 0 q 315 8 329 8 q 282 5 301 8 q 247 0 264 2 q 340 401 295 199 q 419 793 384 602 "},"ä":{"x_min":-11,"x_max":572.328125,"ha":642,"o":"m 161 -14 q 39 29 89 -14 q -11 147 -11 72 q 97 317 -11 270 q 310 374 199 344 q 433 492 420 404 q 403 583 433 549 q 315 618 373 618 q 210 591 255 618 q 134 512 165 565 l 111 519 q 122 581 122 549 l 119 618 q 235 661 195 651 q 315 672 275 672 q 472 633 405 672 q 539 511 539 594 q 532 434 539 479 q 525 375 526 390 l 477 143 q 469 92 473 117 q 482 63 469 78 q 508 48 494 48 q 554 58 529 48 l 572 23 q 452 -10 519 -10 q 386 15 408 -10 q 358 90 365 41 q 266 11 311 37 q 161 -14 222 -14 m 259 924 q 309 903 289 924 q 330 849 330 883 q 310 803 330 825 q 259 781 291 781 q 208 801 229 781 q 188 853 188 822 q 208 903 188 882 q 259 924 229 924 m 494 924 q 543 903 523 924 q 564 849 564 883 q 544 803 564 825 q 494 781 524 781 q 441 802 463 781 q 420 853 420 824 q 441 903 420 883 q 494 924 463 924 m 103 159 q 131 86 103 115 q 204 58 159 58 q 311 99 259 58 q 375 194 363 140 l 402 345 q 176 283 250 313 q 103 159 103 254 "},"<":{"x_min":176,"x_max":961.109375,"ha":1139,"o":"m 279 408 l 960 128 l 961 56 l 176 381 l 176 435 l 961 757 l 960 683 l 279 408 "},"£":{"x_min":-15.28125,"x_max":755.5625,"ha":749,"o":"m -4 99 l 13 97 q 180 199 140 97 q 220 453 220 301 q 155 453 187 453 q 86 448 123 453 l 97 510 q 159 507 118 510 q 222 504 201 504 q 222 532 222 519 q 229 587 223 545 q 321 813 229 715 q 543 911 413 911 q 665 882 606 911 q 755 801 723 854 q 675 718 706 760 l 650 725 q 624 822 650 785 q 543 860 598 860 q 393 745 437 860 q 350 504 350 631 l 469 502 l 604 510 q 593 479 595 496 q 590 440 590 462 q 345 450 475 450 q 292 247 331 319 q 148 96 252 175 l 309 93 q 506 99 379 93 q 662 105 634 105 l 652 -7 q 443 0 579 -7 q 291 6 306 6 q 114 3 237 6 q -15 0 -8 0 l -4 99 "},"¹":{"x_min":136,"x_max":414,"ha":496,"o":"m 311 831 q 226 795 269 813 q 144 754 184 777 q 136 804 144 779 q 304 863 293 859 q 401 904 315 867 l 414 894 q 348 631 379 766 q 291 353 318 496 q 245 359 270 359 q 213 356 224 359 q 198 353 202 353 q 311 831 267 594 "},"t":{"x_min":33,"x_max":436,"ha":433,"o":"m 33 587 q 41 618 38 600 q 44 656 44 636 q 92 648 64 651 q 166 646 120 646 q 182 726 173 679 q 197 813 191 773 q 255 829 231 820 q 319 857 279 837 l 330 843 l 292 701 l 280 645 q 436 655 362 645 q 429 624 434 651 q 423 586 423 597 q 349 593 383 592 q 267 594 315 594 l 195 268 q 179 199 184 227 q 175 138 175 170 q 198 77 175 99 q 261 55 222 55 q 297 59 284 55 q 347 81 310 63 l 341 29 q 272 -1 306 10 q 202 -13 237 -13 q 97 20 141 -13 q 54 113 54 53 q 63 187 54 144 q 76 249 72 230 l 155 594 q 91 593 119 594 q 33 587 63 592 "},"¬":{"x_min":48,"x_max":467,"ha":539,"o":"m 316 793 q 168 725 214 747 q 64 666 121 702 q 59 706 61 687 q 48 748 56 726 q 237 818 152 783 q 448 915 322 853 l 467 895 q 283 0 357 453 q 247 4 271 0 q 211 8 224 8 q 179 5 197 8 q 142 0 160 2 q 316 793 242 398 "},"λ":{"x_min":-54.5625,"x_max":587.109375,"ha":664,"o":"m 234 1025 q 380 939 346 1025 q 431 769 413 854 l 477 509 q 528 248 506 349 q 587 0 549 147 q 548 3 566 1 q 505 5 530 5 l 434 0 q 401 240 421 119 q 346 540 381 362 q 187 263 257 395 q 60 0 116 131 l 3 6 l -54 0 q 106 257 39 148 q 223 455 173 365 q 327 662 274 546 q 276 877 299 812 q 170 942 253 942 q 144 940 152 942 q 87 923 137 939 l 87 983 q 158 1014 123 1004 q 234 1025 194 1025 "},"ù":{"x_min":43,"x_max":709.65625,"ha":767,"o":"m 587 0 l 527 6 q 490 3 510 6 q 460 0 471 1 q 475 50 465 13 q 496 130 486 86 q 378 21 441 58 q 231 -15 315 -15 q 97 30 152 -15 q 43 155 43 76 q 71 383 43 239 q 124 654 99 527 q 162 648 140 651 q 190 645 184 645 q 256 654 223 650 q 187 378 206 466 q 168 186 168 290 q 190 104 168 136 q 259 66 212 71 q 497 214 449 66 q 574 654 545 362 q 611 649 591 651 q 643 647 630 647 q 679 649 665 647 q 709 654 693 651 q 625 320 663 511 q 587 0 587 129 m 494 744 l 316 876 q 276 936 276 897 q 293 969 276 953 q 327 985 311 985 q 356 976 342 985 q 384 953 370 968 l 547 744 l 494 744 "},"W":{"x_min":71,"x_max":1268.234375,"ha":1179,"o":"m 71 932 l 139 926 q 176 929 151 926 q 214 932 201 932 q 220 756 214 838 q 240 559 226 673 l 282 200 q 464 572 379 393 q 627 932 550 751 l 679 926 q 708 929 689 926 q 740 932 727 932 q 751 696 740 815 q 781 443 762 577 q 820 186 801 309 l 980 530 q 1141 932 1070 719 l 1194 926 q 1234 928 1212 926 q 1268 932 1255 930 l 1198 818 l 1109 633 l 972 354 q 893 190 932 273 q 808 0 855 106 l 766 5 q 736 2 747 5 q 719 0 725 0 q 680 367 701 188 q 629 751 658 546 q 431 355 520 541 q 276 0 341 169 q 234 6 255 2 q 214 4 226 6 q 189 0 202 2 q 71 932 141 480 "},"ï":{"x_min":8,"x_max":425,"ha":335,"o":"m 130 655 q 167 650 146 653 q 201 647 188 647 q 239 649 224 647 q 274 654 255 651 q 184 310 216 469 q 152 0 152 152 q 115 4 135 1 q 83 6 95 6 q 41 4 56 6 q 8 0 26 2 q 66 218 38 102 q 112 447 94 333 q 130 655 130 560 m 117 924 q 169 903 145 924 q 183 878 176 892 q 190 849 190 864 q 182 819 190 830 q 161 794 174 807 q 117 781 148 781 q 66 801 88 781 q 44 853 44 822 q 66 903 44 882 q 117 924 88 924 m 352 924 q 402 903 379 924 q 418 880 411 893 q 425 851 425 868 q 418 823 425 835 q 396 796 411 811 q 352 781 381 781 q 303 802 323 781 q 283 853 283 824 q 302 903 283 882 q 352 924 321 924 "},">":{"x_min":176.390625,"x_max":963,"ha":1139,"o":"m 963 381 l 176 56 l 176 128 l 858 408 l 176 683 l 176 757 l 963 435 l 963 381 "},"v":{"x_min":15.28125,"x_max":640.28125,"ha":606,"o":"m 15 656 q 86 648 52 648 q 156 655 120 648 q 195 385 169 513 l 245 118 l 369 337 q 444 481 411 409 q 520 655 477 552 q 575 648 548 648 q 640 655 608 648 q 439 340 533 501 q 255 0 345 180 q 227 4 238 2 q 208 6 216 6 q 178 4 191 6 q 156 0 165 1 q 115 222 140 105 q 72 422 91 339 q 15 656 52 506 "},"τ":{"x_min":18,"x_max":623.546875,"ha":606,"o":"m 219 5 l 151 0 q 240 348 216 218 q 265 576 265 478 q 140 554 186 576 q 45 468 94 532 q 18 556 36 518 q 127 623 65 603 q 262 644 188 644 l 448 644 q 623 656 527 644 q 613 621 616 640 q 609 567 609 601 q 538 573 574 570 q 466 576 502 576 l 390 576 q 342 367 367 480 q 306 176 317 254 q 295 0 295 98 q 247 4 262 2 q 219 5 231 5 "},"û":{"x_min":43,"x_max":709.65625,"ha":767,"o":"m 587 0 l 527 6 q 491 3 511 6 q 460 0 471 1 q 475 50 465 13 q 496 130 486 86 q 378 21 441 58 q 231 -15 315 -15 q 97 30 152 -15 q 43 155 43 76 q 71 383 43 239 q 124 654 99 527 q 162 648 140 651 q 190 645 184 645 q 256 654 223 649 q 187 378 206 466 q 168 186 168 290 q 190 104 168 136 q 259 66 212 71 q 497 214 449 66 q 574 654 545 362 q 611 649 591 651 q 642 647 630 647 q 674 649 654 647 q 709 654 695 652 q 625 320 663 510 q 587 0 587 129 m 568 744 l 458 888 l 290 744 l 225 744 l 432 978 l 508 978 l 618 744 l 568 744 "},"ξ":{"x_min":44,"x_max":689,"ha":696,"o":"m 639 851 q 575 940 608 909 q 491 972 543 972 q 367 906 414 972 q 321 760 321 841 q 386 630 321 667 q 553 594 451 594 q 549 571 551 582 q 547 547 548 560 l 547 521 q 466 531 499 527 q 406 536 432 536 q 246 488 312 536 q 168 351 180 440 l 168 311 l 168 272 q 303 144 186 179 q 508 102 405 123 q 615 -9 615 73 q 579 -128 615 -74 q 480 -240 544 -181 l 434 -212 q 497 -136 478 -160 q 516 -80 516 -112 q 362 9 516 -22 q 126 81 209 40 q 44 272 44 123 q 118 475 44 398 q 321 588 192 552 q 227 668 261 624 q 193 773 193 712 q 272 954 193 883 q 463 1025 351 1025 q 577 1004 525 1025 q 689 943 630 983 q 665 902 679 929 q 639 851 651 875 "},"&":{"x_min":34,"x_max":859,"ha":936,"o":"m 242 722 q 314 879 242 816 q 486 943 387 943 q 610 900 558 943 q 663 787 663 858 q 599 651 663 705 q 432 540 536 596 q 524 402 479 465 q 650 230 569 339 q 742 348 704 281 q 802 493 779 414 l 816 493 q 831 456 818 480 q 859 414 845 432 q 790 299 835 355 q 684 185 746 243 q 764 82 745 107 q 832 -1 784 57 q 746 8 789 2 q 713 6 731 8 q 671 -1 696 4 q 640 45 653 25 q 597 106 628 65 q 447 14 524 47 q 286 -18 371 -18 q 108 44 182 -18 q 34 209 34 106 q 107 395 34 322 q 306 536 181 469 q 259 627 276 579 q 242 722 242 674 m 577 783 q 549 860 577 827 q 476 894 521 894 q 383 851 423 894 q 343 755 343 808 q 355 682 343 720 q 408 581 368 644 q 532 673 487 630 q 577 783 577 716 m 492 267 l 329 493 q 207 399 253 450 q 155 271 161 347 q 211 121 155 182 q 357 60 268 60 q 464 83 413 60 q 569 150 514 107 l 492 267 "},"Λ":{"x_min":-104.171875,"x_max":681.953125,"ha":740,"o":"m 681 0 l 604 5 l 530 0 q 499 245 506 191 q 468 426 491 298 l 409 771 l 211 398 q 106 193 154 293 q 19 0 58 94 l -34 5 q -73 2 -45 5 q -104 0 -101 0 q 36 240 -29 123 l 181 498 q 304 718 252 620 q 411 932 355 815 l 461 926 l 502 932 q 544 626 518 776 q 602 335 570 476 q 681 0 633 194 "},"I":{"x_min":19.4375,"x_max":362.5,"ha":385,"o":"m 172 0 l 100 5 q 47 2 66 5 q 19 0 29 0 q 136 482 86 248 q 211 932 186 716 q 247 927 230 929 q 287 926 263 926 q 336 929 318 926 q 362 932 354 932 q 250 477 297 712 q 172 0 202 241 "},"G":{"x_min":53,"x_max":963.890625,"ha":982,"o":"m 605 889 q 309 743 422 889 q 196 411 196 598 q 277 141 196 243 q 523 39 359 39 q 610 46 577 39 q 698 69 643 54 q 743 266 730 200 q 763 394 756 333 q 841 380 805 380 q 872 383 858 380 q 915 394 887 386 q 863 208 886 300 q 826 26 840 116 q 509 -18 668 4 q 427 -15 452 -18 q 309 2 402 -13 q 134 133 215 19 q 53 390 53 247 q 216 793 53 634 q 623 953 379 953 q 790 931 708 953 q 963 869 872 909 l 938 836 q 920 802 929 825 q 904 761 911 780 l 887 759 q 759 856 829 823 q 605 889 690 889 "},"ΰ":{"x_min":41,"x_max":699,"ha":774,"o":"m 699 432 q 582 121 699 256 q 292 -14 465 -14 q 113 42 186 -14 q 41 204 41 99 q 79 459 41 305 q 124 655 117 613 q 191 650 155 650 q 230 652 208 650 q 264 655 251 654 q 195 406 230 538 q 160 188 160 274 q 194 80 160 123 q 294 37 229 37 q 495 158 426 37 q 564 423 564 280 q 549 535 564 477 q 510 650 535 593 l 546 648 q 588 651 568 648 q 646 662 608 653 q 699 432 699 552 m 272 869 q 318 850 299 869 q 337 805 337 831 q 318 762 337 780 q 272 744 300 744 q 230 762 247 744 q 213 805 213 781 q 231 849 213 830 q 272 869 249 869 m 424 947 q 443 991 426 969 q 478 1013 460 1013 q 511 999 497 1013 q 525 965 525 985 q 519 938 525 951 q 510 918 512 925 l 423 726 l 381 726 l 424 947 m 589 869 q 630 849 612 869 q 649 805 649 830 q 632 762 649 780 q 589 744 615 744 q 546 762 564 744 q 528 805 528 780 q 545 850 528 831 q 589 869 562 869 "},"`":{"x_min":111.5,"x_max":393.4375,"ha":375,"o":"m 249 617 q 219 565 240 587 q 167 544 197 544 q 126 551 142 544 q 111 588 111 559 q 119 623 111 606 q 143 663 126 639 l 365 948 l 393 935 l 249 617 "},"Υ":{"x_min":29.5625,"x_max":776.78125,"ha":667,"o":"m 254 380 q 174 584 197 526 q 110 741 151 641 q 29 932 68 840 q 71 927 62 927 q 105 926 80 926 q 149 929 118 926 q 183 931 180 931 q 230 772 211 830 q 353 450 250 715 l 500 674 q 576 800 535 730 q 647 931 617 869 l 705 926 q 751 929 735 926 q 776 931 767 931 l 669 794 l 577 663 l 380 387 l 350 236 q 317 0 328 117 q 276 4 299 1 q 240 6 253 6 q 199 4 215 6 q 164 0 183 2 q 216 199 193 90 q 254 380 239 308 "},"r":{"x_min":4,"x_max":452.609375,"ha":453,"o":"m 124 656 l 183 649 q 247 656 215 649 q 217 522 227 584 q 307 626 258 583 q 413 669 356 669 q 452 663 438 664 q 438 608 442 635 q 433 550 433 581 q 370 559 401 554 q 204 426 237 559 q 135 0 172 294 q 100 3 125 0 q 70 6 76 6 q 31 3 55 6 q 4 0 6 0 q 88 339 52 158 q 124 656 124 520 "},"x":{"x_min":-66,"x_max":622,"ha":615,"o":"m 129 206 l 235 320 q 148 486 191 405 q 53 656 104 567 q 126 648 89 648 q 198 655 162 648 q 247 534 223 588 q 309 403 272 480 q 427 550 394 508 q 502 655 461 591 q 553 648 527 648 q 622 655 584 648 l 452 477 l 336 351 l 404 216 q 453 117 434 151 q 523 0 472 84 q 479 3 506 0 q 447 6 451 6 q 404 3 430 6 q 373 0 377 0 q 338 90 351 58 q 259 268 325 122 q 153 136 209 209 q 54 0 97 63 q 21 3 42 0 q -4 6 0 6 q -38 3 -17 6 q -66 0 -60 0 l 129 206 "},"è":{"x_min":9,"x_max":616,"ha":664,"o":"m 142 236 q 192 100 142 153 q 322 47 242 47 q 433 77 376 47 q 538 155 490 108 l 553 140 q 536 95 545 119 q 524 50 528 70 q 415 0 471 17 q 302 -18 360 -18 q 89 61 170 -18 q 9 273 9 140 q 114 550 9 431 q 377 669 220 669 q 547 594 479 669 q 616 418 616 520 l 610 336 l 379 336 l 147 336 q 142 236 142 292 m 452 743 l 274 874 q 246 899 257 884 q 235 933 235 915 q 252 965 235 948 q 286 983 270 983 q 315 974 302 983 q 342 951 328 966 l 508 743 l 452 743 m 324 389 l 488 389 q 495 452 495 426 q 460 567 495 516 q 364 618 426 618 q 232 550 282 618 q 159 389 182 483 l 324 389 "},"μ":{"x_min":-81.9375,"x_max":711.109375,"ha":768,"o":"m 644 647 q 711 656 677 647 q 627 315 665 503 q 590 0 590 127 l 530 6 l 468 0 l 490 108 q 393 17 440 48 q 283 -13 347 -13 q 203 2 237 -13 q 131 53 169 18 q 83 -175 105 -51 q 48 -372 61 -299 q 15 -367 30 -369 q -13 -365 0 -365 q -46 -367 -29 -365 q -81 -372 -63 -370 q 1 -59 -37 -229 q 72 302 40 110 q 127 656 105 493 q 162 648 150 650 q 193 645 175 645 q 225 648 208 645 q 261 656 243 651 q 191 386 209 484 q 173 211 173 288 q 210 115 173 153 q 304 77 247 77 q 478 174 422 77 q 550 406 534 271 q 577 656 566 540 q 644 647 611 647 "},"÷":{"x_min":169,"x_max":969,"ha":1139,"o":"m 641 644 q 618 593 641 615 q 566 571 596 571 q 517 592 537 571 q 497 643 497 614 q 517 693 497 672 q 567 714 538 714 l 593 709 q 627 682 614 700 q 641 644 641 664 m 969 375 l 169 375 l 169 440 l 969 440 l 969 375 m 641 170 q 621 120 641 141 q 570 100 601 100 q 519 120 542 100 q 497 170 497 141 q 518 221 497 199 q 569 243 540 243 q 581 241 576 243 q 605 234 587 240 q 632 215 624 229 q 641 170 641 201 "},"h":{"x_min":4,"x_max":668,"ha":765,"o":"m 192 1025 q 222 1019 212 1020 q 252 1018 231 1018 q 276 1018 265 1018 q 323 1025 288 1019 q 284 850 308 969 q 258 719 260 731 l 223 534 q 335 633 269 598 q 479 669 402 669 q 612 623 556 669 q 668 502 668 577 q 630 223 668 409 q 587 0 592 37 q 520 8 553 4 q 488 5 506 8 q 454 0 470 2 q 519 247 495 131 q 544 469 544 363 q 512 555 544 521 q 428 590 481 590 l 412 590 q 237 477 292 571 q 165 249 181 382 q 135 0 148 116 q 100 3 124 0 q 70 6 76 6 q 31 3 55 6 q 4 0 6 0 q 131 536 70 226 q 192 1025 192 847 "},".":{"x_min":34,"x_max":202,"ha":375,"o":"m 118 158 q 178 134 154 158 q 202 75 202 110 q 178 15 202 39 q 118 -8 154 -8 q 58 16 82 -8 q 34 77 34 40 q 36 93 34 87 q 49 128 39 99 q 118 158 60 158 "},"φ":{"x_min":15,"x_max":934,"ha":999,"o":"m 405 -372 q 359 -366 381 -366 q 315 -367 335 -366 q 267 -372 295 -367 q 311 -194 287 -300 q 351 -10 335 -87 q 115 77 216 -10 q 15 302 15 164 q 121 554 15 456 q 385 653 228 653 l 410 653 l 412 606 q 213 517 282 606 q 144 293 144 429 q 203 116 144 192 q 360 41 263 41 q 388 184 375 118 q 423 368 400 250 q 484 578 445 487 q 666 669 524 669 q 861 580 788 669 q 934 366 934 491 q 811 85 934 188 q 507 -17 688 -17 l 464 -17 q 429 -187 444 -101 q 405 -372 414 -274 m 502 32 q 726 147 643 32 q 810 412 810 263 q 780 554 810 491 q 682 618 751 618 q 646 611 664 618 q 591 568 628 605 q 522 336 553 532 q 476 33 491 140 l 502 32 "},";":{"x_min":-47.21875,"x_max":315,"ha":426,"o":"m 230 644 q 289 619 264 644 q 315 560 315 594 q 289 501 315 527 q 230 476 263 476 q 171 500 195 476 q 148 560 148 525 q 161 611 148 578 q 230 644 174 644 m 95 91 q 129 149 115 133 q 177 165 143 165 q 220 155 205 165 q 234 120 234 145 q 227 88 234 103 q 201 44 219 72 l -18 -240 l -47 -224 l 95 91 "},"f":{"x_min":7,"x_max":513.78125,"ha":382,"o":"m 143 597 q 58 597 99 597 q 7 592 23 593 q 20 625 16 615 q 27 656 23 635 q 91 648 59 651 q 152 646 122 646 q 248 907 176 789 q 441 1025 320 1025 q 481 1022 474 1025 q 513 1004 488 1020 q 502 964 506 980 q 484 883 498 948 l 474 879 q 440 911 461 895 q 386 932 420 926 q 279 850 299 932 q 259 645 259 769 l 418 656 q 412 626 413 643 q 411 592 411 608 q 320 594 383 592 q 252 597 256 597 l 206 341 q 176 162 191 256 q 161 0 161 68 l 91 4 l 26 0 q 89 299 58 140 q 143 597 120 459 "},"A":{"x_min":-89,"x_max":757,"ha":808,"o":"m 495 956 l 525 947 l 558 956 q 625 544 608 641 q 675 297 641 447 q 757 0 708 148 q 713 3 741 0 q 677 6 686 6 q 627 4 648 6 q 593 0 606 1 q 574 186 593 80 q 545 349 555 292 l 390 354 l 233 349 l 156 213 q 97 108 126 162 q 40 0 67 55 q 1 3 24 0 q -25 6 -22 6 q -62 4 -45 6 q -89 0 -79 1 q 233 486 66 217 q 495 956 399 754 m 389 417 l 530 421 l 464 762 l 266 421 l 389 417 "},"6":{"x_min":51,"x_max":664,"ha":749,"o":"m 548 852 q 308 726 402 852 q 186 438 215 600 q 293 519 234 490 q 419 549 352 549 q 592 481 520 549 q 664 312 664 414 q 567 78 664 175 q 331 -18 470 -18 q 121 68 191 -18 q 51 297 51 154 q 185 714 51 523 q 537 906 320 906 q 577 904 565 906 q 636 894 590 903 l 648 829 q 548 852 605 852 m 162 231 q 203 92 162 152 q 322 33 245 33 q 482 114 423 33 q 542 303 542 196 q 495 428 542 376 q 374 481 448 481 q 239 424 297 481 q 168 289 181 367 q 162 231 162 263 "},"ϊ":{"x_min":8,"x_max":437,"ha":335,"o":"m 128 656 q 201 648 166 648 q 271 655 238 648 q 185 311 217 474 q 153 0 153 148 q 117 3 134 1 q 77 5 99 5 l 8 0 q 70 230 45 130 q 112 442 95 330 q 128 656 128 554 m 132 924 q 181 902 161 924 q 202 850 202 881 q 182 800 202 821 q 132 780 163 780 q 80 801 102 780 q 59 853 59 822 q 79 903 59 882 q 132 924 100 924 m 366 924 q 416 902 396 924 q 437 850 437 881 q 418 800 437 820 q 367 780 399 780 q 316 801 338 780 q 295 853 295 822 q 315 903 295 883 q 366 924 335 924 "},"π":{"x_min":11,"x_max":940.171875,"ha":931,"o":"m 649 0 q 608 4 617 4 q 577 5 599 5 l 506 0 q 596 339 570 229 q 622 575 622 450 l 495 578 l 361 578 q 314 375 338 481 q 276 182 290 269 q 263 0 263 94 q 229 4 245 2 q 188 5 212 5 l 120 0 q 191 291 162 152 q 237 578 220 431 q 126 551 173 578 q 38 468 79 525 q 26 515 30 502 q 11 557 22 529 q 132 627 63 609 q 291 646 201 646 l 692 646 l 723 646 l 752 646 q 940 656 852 646 q 930 614 933 639 q 927 567 927 590 q 842 576 883 574 q 747 578 801 578 q 700 375 724 481 q 663 182 676 269 q 649 0 649 94 "},"ά":{"x_min":11,"x_max":820.71875,"ha":847,"o":"m 685 326 q 729 120 708 201 q 761 0 751 40 l 695 2 l 629 0 q 614 73 623 30 q 595 156 605 115 q 468 29 538 73 q 304 -14 398 -14 q 93 65 176 -14 q 11 273 11 145 q 118 548 11 427 q 379 669 225 669 q 542 625 480 669 q 652 488 605 581 q 674 542 664 513 q 708 655 684 570 l 763 651 l 820 655 q 685 326 744 493 m 362 744 l 556 941 q 594 971 576 961 q 632 982 611 982 q 669 965 653 982 q 685 929 685 949 q 665 897 685 917 q 635 870 646 876 l 420 744 l 362 744 m 135 238 q 178 93 135 150 q 307 37 222 37 q 495 136 419 37 q 572 351 572 236 q 521 534 572 450 q 379 618 471 618 q 197 495 260 618 q 135 238 135 372 "},"O":{"x_min":43,"x_max":1060,"ha":1103,"o":"m 615 953 q 931 847 802 953 q 1060 555 1060 741 q 893 150 1060 318 q 488 -18 726 -18 q 168 88 294 -18 q 43 387 43 195 q 70 572 43 440 q 254 828 97 704 q 615 953 411 953 m 606 888 q 301 735 417 888 q 185 386 185 583 q 266 139 185 236 q 496 43 348 43 q 802 189 685 43 q 920 529 920 336 q 910 651 920 596 q 867 763 900 705 q 763 854 835 821 q 606 888 692 888 "},"n":{"x_min":4,"x_max":667,"ha":765,"o":"m 124 655 l 183 647 q 251 655 217 647 q 216 523 228 591 q 335 631 273 593 q 477 669 398 669 q 612 623 558 669 q 667 496 667 577 q 662 437 667 469 q 651 376 658 405 l 615 178 q 599 82 607 135 q 587 0 592 28 q 521 8 554 3 q 488 5 507 8 q 454 0 470 2 q 517 248 490 120 q 545 469 545 376 q 510 557 539 525 q 426 589 481 589 q 245 490 305 589 q 167 254 186 391 q 135 0 148 116 q 100 3 125 0 q 70 6 76 6 q 31 3 55 6 q 4 0 6 0 q 89 340 54 160 q 124 655 124 519 "},"3":{"x_min":3,"x_max":657,"ha":749,"o":"m 41 154 l 55 145 q 128 65 77 93 q 241 38 179 38 q 424 106 348 38 q 500 282 500 175 q 461 397 500 349 q 357 445 423 445 q 312 439 337 445 q 264 429 287 434 l 276 503 q 305 503 291 503 q 332 503 318 503 q 479 564 419 503 q 539 712 539 625 q 498 816 539 776 q 393 857 458 857 q 286 822 330 857 q 220 725 242 787 l 206 725 q 195 764 201 745 q 169 822 189 783 q 415 911 282 911 q 584 859 512 911 q 657 714 657 808 q 607 582 657 640 q 417 479 558 525 q 569 420 510 467 q 629 284 629 373 q 507 65 629 148 q 241 -18 386 -18 q 115 -7 179 -18 q 3 25 51 3 q 21 90 11 59 q 41 154 30 120 "},"9":{"x_min":41,"x_max":687,"ha":749,"o":"m 53 132 q 124 63 86 88 q 208 39 161 39 q 424 158 346 39 q 531 438 501 277 q 435 369 486 392 q 321 347 383 347 q 145 417 214 347 q 77 594 77 487 q 174 818 77 726 q 407 911 272 911 q 613 825 539 911 q 687 605 687 740 q 554 178 687 374 q 204 -18 421 -18 q 139 -12 172 -18 q 70 0 106 -6 q 53 63 60 32 q 41 129 46 95 l 53 132 m 208 592 q 249 466 208 517 q 364 416 291 416 q 516 490 460 416 q 573 663 573 564 q 530 802 573 746 q 406 858 488 858 q 283 797 337 858 q 220 687 230 737 q 209 627 210 638 q 208 592 208 616 "},"l":{"x_min":8.328125,"x_max":337.5,"ha":338,"o":"m 200 1025 q 231 1019 222 1020 q 263 1018 241 1018 q 337 1025 295 1018 q 225 516 277 790 q 144 0 173 242 q 108 4 127 1 q 76 6 88 6 q 39 4 54 6 q 8 0 25 2 q 125 506 73 234 q 200 1025 176 779 "},"κ":{"x_min":4.171875,"x_max":673.609375,"ha":663,"o":"m 493 145 l 608 0 q 562 3 593 0 q 526 6 531 6 q 481 4 501 6 q 450 0 462 1 q 331 177 383 104 q 213 337 280 251 l 186 336 q 160 172 173 262 q 136 0 147 83 q 100 3 125 0 q 70 6 76 6 q 31 3 55 6 q 4 0 6 0 q 76 316 45 145 q 125 656 106 486 q 187 647 156 647 q 256 656 225 647 q 197 386 223 526 l 220 383 q 354 475 283 416 q 534 656 425 535 q 606 648 573 648 q 670 656 633 648 l 673 640 q 581 579 641 621 q 466 497 522 538 l 318 387 q 493 145 404 265 "},"4":{"x_min":19,"x_max":680,"ha":749,"o":"m 404 254 q 211 249 335 254 q 19 244 88 244 l 28 296 q 180 467 62 334 q 419 736 299 600 q 571 910 539 872 q 589 906 576 908 q 614 902 602 904 l 666 910 q 610 699 631 780 q 565 510 589 618 l 531 337 q 606 339 558 337 q 680 345 654 342 q 660 278 660 310 l 660 244 q 573 249 625 244 q 514 254 520 254 q 486 117 496 178 q 476 0 476 56 l 411 6 q 370 3 396 6 q 338 0 343 0 q 370 117 354 54 q 404 254 386 181 m 424 337 q 489 598 452 441 q 531 773 527 755 l 387 620 q 228 439 244 457 q 137 332 212 420 l 424 337 "},"p":{"x_min":-81.9375,"x_max":699,"ha":765,"o":"m -22 -145 q 65 268 20 53 q 127 654 111 483 q 187 648 156 648 q 222 650 202 648 q 251 654 241 652 l 225 556 q 329 639 269 609 q 455 669 389 669 q 633 589 568 669 q 699 392 699 509 q 598 110 699 234 q 343 -14 498 -14 q 223 24 276 -14 q 144 126 169 62 l 113 -25 q 82 -189 97 -103 q 50 -372 66 -274 q 18 -367 36 -370 q -13 -365 0 -365 q -46 -367 -29 -365 q -81 -372 -63 -370 q -44 -240 -59 -297 q -22 -145 -29 -184 m 574 406 q 537 542 574 484 q 425 601 500 601 q 238 487 301 601 q 175 240 175 373 q 214 112 175 163 q 327 61 254 61 q 482 135 423 61 q 553 272 542 209 q 569 366 564 335 q 574 406 574 396 "},"ψ":{"x_min":44,"x_max":976,"ha":1050,"o":"m 845 438 q 840 514 845 481 q 817 641 836 547 q 878 647 848 641 q 945 665 907 654 q 966 569 957 619 q 976 479 976 519 q 845 117 976 249 q 482 -14 714 -14 q 427 -373 449 -185 l 380 -366 q 291 -373 330 -366 l 344 -153 l 374 -9 q 136 79 228 8 q 44 288 44 149 q 59 463 44 363 q 91 655 75 563 q 123 651 105 652 q 157 650 141 650 q 195 652 174 650 q 227 655 216 654 q 179 473 196 567 q 162 291 162 379 q 218 108 162 178 q 382 39 275 39 q 459 432 428 255 q 509 786 491 609 q 543 779 523 783 q 577 775 564 775 q 603 776 594 775 q 646 786 613 777 q 597 572 620 679 q 544 302 574 465 q 495 39 513 139 q 755 150 666 39 q 845 438 845 262 "},"Ü":{"x_min":75,"x_max":993,"ha":993,"o":"m 266 927 l 349 931 q 260 608 296 763 q 208 300 224 452 l 208 275 l 208 236 q 281 98 208 147 q 448 49 354 49 q 595 80 528 49 q 720 202 661 112 q 826 525 778 291 q 873 931 873 759 l 934 927 l 993 931 q 899 528 940 723 q 820 229 858 333 q 689 53 781 125 q 426 -18 597 -18 q 177 44 280 -18 q 75 244 75 107 q 84 321 75 275 q 114 458 94 368 q 158 672 134 548 q 198 931 181 797 l 266 927 m 534 1204 q 582 1181 563 1204 q 605 1130 605 1159 q 582 1079 605 1098 q 534 1061 560 1061 q 483 1081 505 1061 q 461 1131 461 1102 q 482 1182 461 1160 q 534 1204 503 1204 m 769 1204 q 818 1182 797 1204 q 839 1129 839 1160 q 818 1080 839 1099 q 768 1061 798 1061 q 718 1081 740 1061 q 696 1131 696 1102 q 717 1182 696 1160 q 769 1204 739 1204 "},"à":{"x_min":-11,"x_max":572.328125,"ha":642,"o":"m 161 -14 q 39 29 89 -14 q -11 147 -11 72 q 97 317 -11 270 q 310 374 199 344 q 433 492 420 404 q 403 583 433 549 q 315 618 373 618 q 210 591 255 618 q 134 512 165 565 l 111 519 q 122 581 122 549 l 119 618 q 235 661 195 651 q 315 672 275 672 q 472 633 405 672 q 539 511 539 594 q 532 434 539 479 q 525 375 526 390 l 477 143 q 469 92 473 117 q 482 63 469 78 q 508 48 494 48 q 554 58 529 48 l 572 23 q 452 -10 519 -10 q 386 15 408 -10 q 358 90 365 41 q 266 11 311 37 q 161 -14 222 -14 m 418 744 l 240 876 q 213 902 225 884 q 201 936 201 919 q 218 969 201 953 q 252 985 236 985 q 281 976 268 985 q 308 953 294 968 l 474 744 l 418 744 m 103 159 q 131 86 103 115 q 204 58 159 58 q 311 99 259 58 q 375 194 363 140 l 402 345 q 176 283 250 313 q 103 159 103 254 "},"η":{"x_min":4,"x_max":667,"ha":765,"o":"m 70 6 q 31 3 55 6 q 4 0 6 0 q 90 339 55 166 q 124 655 124 512 l 183 647 q 251 655 217 647 q 216 523 228 588 q 332 629 266 590 q 475 669 398 669 q 612 623 557 669 q 667 497 667 577 q 651 376 667 437 l 558 -111 q 534 -253 547 -173 q 515 -372 520 -333 q 480 -367 495 -369 q 451 -365 465 -365 q 418 -367 437 -365 q 383 -372 399 -370 q 461 -62 427 -200 q 519 217 494 75 q 545 460 545 359 q 514 551 545 515 q 428 588 483 588 q 318 556 384 588 q 211 431 252 524 q 158 221 170 339 q 135 0 145 104 q 100 3 125 0 q 70 6 76 6 "}}}
